<svg width="283" height="341" viewBox="0 0 283 341" fill="none" xmlns="http://www.w3.org/2000/svg">
<g filter="url(#filter0_dddddd_153_3)">
<path d="M87.2549 34.1549C87.2549 33.0577 88.1443 32.1682 89.2415 32.1682H193.942C195.039 32.1682 195.929 33.0577 195.929 34.1549V128.73C195.929 129.723 195.196 130.563 194.212 130.698L89.5118 145.077C88.3184 145.241 87.2549 144.313 87.2549 143.109V34.1549Z" fill="url(#paint0_linear_153_3)"/>
</g>
<g filter="url(#filter1_dd_153_3)">
<path d="M72.9565 -2.79023C72.9565 -3.88742 73.846 -4.77686 74.9432 -4.77686H208.242C209.339 -4.77686 210.229 -3.88741 210.229 -2.79022V118.689C210.229 119.681 209.497 120.521 208.514 120.657L75.2157 139.115C74.0215 139.281 72.9565 138.353 72.9565 137.147V-2.79023Z" fill="url(#paint1_linear_153_3)"/>
</g>
<path d="M59.6445 118.212L62.9685 118.212L62.9685 120.012L61.2285 120.012L61.2285 125.94L62.9685 125.94L62.9685 127.74L59.6445 127.728L59.6445 127.392C59.6285 126.888 59.2605 126.532 58.5405 126.324C57.8205 126.116 56.7925 125.988 55.4565 125.94L52.8285 125.844L52.8285 119.388L59.6445 119.388L59.6445 118.212ZM55.6365 124.224C56.6365 124.264 57.4765 124.348 58.1565 124.476C58.8285 124.604 59.3245 124.8 59.6445 125.064L59.6445 121.308L54.4125 121.308L54.4125 124.188L55.6365 124.224ZM59.4285 110.545L59.4285 114.445L61.2285 115.189L61.2285 117.181L52.8285 113.437L52.8285 111.517L61.2285 107.761L61.2285 109.801L59.4285 110.545ZM57.9525 111.157L54.7365 112.489L57.9525 113.821L57.9525 111.157ZM54.4125 100.049L54.4125 102.737L61.2285 102.737L61.2285 104.657L54.4125 104.657L54.4125 107.333L52.8285 107.333L52.8285 100.049L54.4125 100.049ZM59.4285 92.9623L59.4285 96.8623L61.2285 97.6063L61.2285 99.5983L52.8285 95.8543L52.8285 93.9343L61.2285 90.1783L61.2285 92.2183L59.4285 92.9623ZM57.9525 93.5743L54.7365 94.9063L57.9525 96.2383L57.9525 93.5743ZM56.8485 78.646C57.0005 78.134 57.2485 77.742 57.5925 77.47C57.9365 77.198 58.3605 77.062 58.8645 77.062C59.6085 77.062 60.1885 77.346 60.6045 77.914C61.0205 78.474 61.2285 79.278 61.2285 80.326L61.2285 84.466L52.8285 84.466L52.8285 80.554C52.8285 79.578 53.0165 78.818 53.3925 78.274C53.7685 77.73 54.3045 77.458 55.0005 77.458C55.4165 77.458 55.7845 77.562 56.1045 77.77C56.4165 77.978 56.6645 78.27 56.8485 78.646ZM56.3085 82.534L56.3085 80.722C56.3085 80.298 56.2245 79.978 56.0565 79.762C55.8805 79.546 55.6245 79.438 55.2885 79.438C54.9605 79.438 54.7085 79.55 54.5325 79.774C54.3565 79.99 54.2685 80.306 54.2685 80.722L54.2685 82.534L56.3085 82.534ZM59.7885 80.398C59.7885 79.486 59.4285 79.03 58.7085 79.03C58.0125 79.03 57.6645 79.486 57.6645 80.398L57.6645 82.534L59.7885 82.534L59.7885 80.398ZM55.5885 70.8566C55.5885 69.8326 55.8165 69.0486 56.2725 68.5046C56.7285 67.9526 57.4045 67.6766 58.3005 67.6766C59.2525 67.6766 59.9805 67.9806 60.4845 68.5886C60.9805 69.1886 61.2285 70.0366 61.2285 71.1326L61.2285 74.9246L52.8285 74.9246L52.8285 72.9926L55.5885 72.9926L55.5885 70.8566ZM59.7885 71.2406C59.7885 70.7366 59.6645 70.3446 59.4165 70.0646C59.1685 69.7766 58.8085 69.6326 58.3365 69.6326C57.4645 69.6326 57.0285 70.1686 57.0285 71.2406L57.0285 72.9926L59.7885 72.9926L59.7885 71.2406ZM52.8285 66.6086L52.8285 64.6766L61.2285 64.6766L61.2285 66.6086L52.8285 66.6086ZM52.8285 60.4727L55.3725 58.7327L52.8285 56.9927L52.8285 54.7127L56.8485 57.5087L61.2285 54.4847L61.2285 56.7767L58.4445 58.7327L61.2285 60.6647L61.2285 62.9087L56.9325 59.9087L52.8285 62.7167L52.8285 60.4727ZM61.3725 49.0212C61.3725 49.8932 61.1845 50.6812 60.8085 51.3852C60.4325 52.0812 59.9165 52.6292 59.2605 53.0292C58.5965 53.4212 57.8525 53.6172 57.0285 53.6172C56.2045 53.6172 55.4645 53.4212 54.8085 53.0292C54.1445 52.6292 53.6245 52.0812 53.2485 51.3852C52.8725 50.6812 52.6845 49.8932 52.6845 49.0212C52.6845 48.1492 52.8725 47.3652 53.2485 46.6692C53.6245 45.9732 54.1445 45.4252 54.8085 45.0252C55.4645 44.6252 56.2045 44.4252 57.0285 44.4252C57.8525 44.4252 58.5965 44.6252 59.2605 45.0252C59.9165 45.4252 60.4325 45.9732 60.8085 46.6692C61.1845 47.3652 61.3725 48.1492 61.3725 49.0212ZM59.7165 49.0212C59.7165 48.5252 59.6045 48.0772 59.3805 47.6772C59.1485 47.2772 58.8285 46.9652 58.4205 46.7412C58.0125 46.5092 57.5485 46.3932 57.0285 46.3932C56.5085 46.3932 56.0445 46.5092 55.6365 46.7412C55.2285 46.9652 54.9125 47.2772 54.6885 47.6772C54.4565 48.0772 54.3405 48.5252 54.3405 49.0212C54.3405 49.5172 54.4565 49.9652 54.6885 50.3652C54.9125 50.7652 55.2285 51.0812 55.6365 51.3132C56.0445 51.5372 56.5085 51.6492 57.0285 51.6492C57.5485 51.6492 58.0125 51.5372 58.4205 51.3132C58.8285 51.0812 59.1485 50.7652 59.3805 50.3652C59.6045 49.9652 59.7165 49.5172 59.7165 49.0212ZM59.6445 33.8981L62.9685 33.8981L62.9685 35.6981L61.2285 35.6981L61.2285 41.6261L62.9685 41.6261L62.9685 43.4261L59.6445 43.4141L59.6445 43.0781C59.6285 42.5741 59.2605 42.2181 58.5405 42.0101C57.8205 41.8021 56.7925 41.6741 55.4565 41.6261L52.8285 41.5301L52.8285 35.0741L59.6445 35.0741L59.6445 33.8981ZM55.6365 39.9101C56.6365 39.9501 57.4765 40.0341 58.1565 40.1621C58.8285 40.2901 59.3245 40.4861 59.6445 40.7501L59.6445 36.9941L54.4125 36.9941L54.4125 39.8741L55.6365 39.9101ZM59.4285 26.2311L59.4285 30.1311L61.2285 30.8751L61.2285 32.8671L52.8285 29.1231L52.8285 27.2031L61.2285 23.4471L61.2285 25.4871L59.4285 26.2311ZM57.9525 26.8431L54.7365 28.1751L57.9525 29.5071L57.9525 26.8431Z" fill="#474747"/>
<path d="M108.488 26.4821H131.635V35.2458C131.456 36.4946 131.256 37.7434 131.033 38.9922C130.81 40.2409 130.431 42.0695 129.896 44.4779C129.405 46.8862 128.937 49.3392 128.491 51.8368C127.108 58.6159 126.417 64.6591 126.417 69.9664V76.2549H113.305V70.9699C113.305 66.2423 114.509 60.5336 116.917 53.8437C119.548 46.7524 121.176 42.2256 121.801 40.2632C122.47 38.2563 122.804 36.7622 122.804 35.781H118.188V42.5378H108.488V26.4821ZM130.638 51.3685H142.212V61.1357H130.638V51.3685ZM144.867 41.3336H139.515V32.1016C141.924 32.1016 143.641 31.611 144.667 30.6298C145.737 29.6486 146.339 28.266 146.473 26.4821H155.839V76.2549H144.867V41.3336ZM163.16 41.3336H157.808V32.1016C160.216 32.1016 161.933 31.611 162.959 30.6298C164.03 29.6486 164.632 28.266 164.766 26.4821H174.131V76.2549H163.16V41.3336Z" fill="url(#paint2_linear_153_3)"/>
<path d="M118.968 84.8576V95.6112L121.281 84.8576H125.732V106.365H121.281V95.669L118.968 106.365H114.516V84.8576H118.968ZM144.202 90.6391V100.843C144.202 102.693 143.73 104.129 142.785 105.151C141.841 106.172 140.54 106.683 138.883 106.683H137.929C136.195 106.683 134.865 106.182 133.94 105.18C133.015 104.158 132.552 102.713 132.552 100.843V97.4901H131.425V106.365H126.655V84.8576H131.425V92.8071H132.552V90.6391C132.552 86.592 134.344 84.5685 137.929 84.5685H138.854C142.419 84.5685 144.202 86.592 144.202 90.6391ZM139.259 101.161V90.1476C139.259 89.3382 138.97 88.9335 138.391 88.9335C137.813 88.9335 137.524 89.3382 137.524 90.1476V101.161C137.524 101.874 137.813 102.231 138.391 102.231C138.97 102.231 139.259 101.874 139.259 101.161ZM145.958 100.323C146.093 97.4516 146.16 92.2964 146.16 84.8576H156.567V106.365H151.797V89.3093H150.496C150.496 95.0908 150.419 99.2439 150.265 101.768C150.149 103.484 149.754 104.678 149.08 105.353C148.425 106.027 147.268 106.365 145.611 106.365H144.715V101.768H144.946C145.331 101.768 145.592 101.662 145.727 101.45C145.861 101.219 145.939 100.843 145.958 100.323ZM163.899 98.5886H163.581L161.875 106.365H156.961L159.187 97.23C158.204 96.5555 157.713 95.3895 157.713 93.7322V89.1937C157.713 87.7291 158.031 86.6402 158.667 85.9272C159.322 85.2141 160.353 84.8576 161.76 84.8576H168.64V106.365H163.899V98.5886ZM163.899 94.6283V88.6156H163.321C162.993 88.6156 162.772 88.7023 162.656 88.8757C162.54 89.0492 162.482 89.319 162.482 89.6851V93.5876C162.482 93.9538 162.54 94.2236 162.656 94.397C162.772 94.5512 162.993 94.6283 163.321 94.6283H163.899Z" fill="url(#paint3_linear_153_3)"/>
<defs>
<filter id="filter0_dddddd_153_3" x="0.615334" y="32.1682" width="281.953" height="307.866" filterUnits="userSpaceOnUse" color-interpolation-filters="sRGB">
<feFlood flood-opacity="0" result="BackgroundImageFix"/>
<feColorMatrix in="SourceAlpha" type="matrix" values="0 0 0 0 0 0 0 0 0 0 0 0 0 0 0 0 0 0 127 0" result="hardAlpha"/>
<feOffset dy="2.99692"/>
<feGaussianBlur stdDeviation="1.19877"/>
<feColorMatrix type="matrix" values="0 0 0 0 0 0 0 0 0 0 0 0 0 0 0 0 0 0 0.0140573 0"/>
<feBlend mode="normal" in2="BackgroundImageFix" result="effect1_dropShadow_153_3"/>
<feColorMatrix in="SourceAlpha" type="matrix" values="0 0 0 0 0 0 0 0 0 0 0 0 0 0 0 0 0 0 127 0" result="hardAlpha"/>
<feOffset dy="7.20202"/>
<feGaussianBlur stdDeviation="2.88081"/>
<feColorMatrix type="matrix" values="0 0 0 0 0 0 0 0 0 0 0 0 0 0 0 0 0 0 0.0201946 0"/>
<feBlend mode="normal" in2="effect1_dropShadow_153_3" result="effect2_dropShadow_153_3"/>
<feColorMatrix in="SourceAlpha" type="matrix" values="0 0 0 0 0 0 0 0 0 0 0 0 0 0 0 0 0 0 127 0" result="hardAlpha"/>
<feOffset dy="13.5608"/>
<feGaussianBlur stdDeviation="5.42431"/>
<feColorMatrix type="matrix" values="0 0 0 0 0 0 0 0 0 0 0 0 0 0 0 0 0 0 0.025 0"/>
<feBlend mode="normal" in2="effect2_dropShadow_153_3" result="effect3_dropShadow_153_3"/>
<feColorMatrix in="SourceAlpha" type="matrix" values="0 0 0 0 0 0 0 0 0 0 0 0 0 0 0 0 0 0 127 0" result="hardAlpha"/>
<feOffset dy="24.1901"/>
<feGaussianBlur stdDeviation="9.67604"/>
<feColorMatrix type="matrix" values="0 0 0 0 0 0 0 0 0 0 0 0 0 0 0 0 0 0 0.0298054 0"/>
<feBlend mode="normal" in2="effect3_dropShadow_153_3" result="effect4_dropShadow_153_3"/>
<feColorMatrix in="SourceAlpha" type="matrix" values="0 0 0 0 0 0 0 0 0 0 0 0 0 0 0 0 0 0 127 0" result="hardAlpha"/>
<feOffset dy="45.2449"/>
<feGaussianBlur stdDeviation="18.098"/>
<feColorMatrix type="matrix" values="0 0 0 0 0 0 0 0 0 0 0 0 0 0 0 0 0 0 0.0359427 0"/>
<feBlend mode="normal" in2="effect4_dropShadow_153_3" result="effect5_dropShadow_153_3"/>
<feColorMatrix in="SourceAlpha" type="matrix" values="0 0 0 0 0 0 0 0 0 0 0 0 0 0 0 0 0 0 127 0" result="hardAlpha"/>
<feOffset dy="108.299"/>
<feGaussianBlur stdDeviation="43.3198"/>
<feColorMatrix type="matrix" values="0 0 0 0 0 0 0 0 0 0 0 0 0 0 0 0 0 0 0.05 0"/>
<feBlend mode="normal" in2="effect5_dropShadow_153_3" result="effect6_dropShadow_153_3"/>
<feBlend mode="normal" in="SourceGraphic" in2="effect6_dropShadow_153_3" result="shape"/>
</filter>
<filter id="filter1_dd_153_3" x="24.2218" y="-49.1796" width="234.741" height="241.381" filterUnits="userSpaceOnUse" color-interpolation-filters="sRGB">
<feFlood flood-opacity="0" result="BackgroundImageFix"/>
<feColorMatrix in="SourceAlpha" type="matrix" values="0 0 0 0 0 0 0 0 0 0 0 0 0 0 0 0 0 0 127 0" result="hardAlpha"/>
<feOffset dy="4.33198"/>
<feGaussianBlur stdDeviation="24.3674"/>
<feComposite in2="hardAlpha" operator="out"/>
<feColorMatrix type="matrix" values="0 0 0 0 0 0 0 0 0 0 0 0 0 0 0 0 0 0 0.05 0"/>
<feBlend mode="normal" in2="BackgroundImageFix" result="effect1_dropShadow_153_3"/>
<feColorMatrix in="SourceAlpha" type="matrix" values="0 0 0 0 0 0 0 0 0 0 0 0 0 0 0 0 0 0 127 0" result="hardAlpha"/>
<feOffset dy="4"/>
<feGaussianBlur stdDeviation="2"/>
<feComposite in2="hardAlpha" operator="out"/>
<feColorMatrix type="matrix" values="0 0 0 0 0 0 0 0 0 0 0 0 0 0 0 0 0 0 0.11 0"/>
<feBlend mode="normal" in2="effect1_dropShadow_153_3" result="effect2_dropShadow_153_3"/>
<feBlend mode="normal" in="SourceGraphic" in2="effect2_dropShadow_153_3" result="shape"/>
</filter>
<linearGradient id="paint0_linear_153_3" x1="272.543" y1="-25.785" x2="90.6071" y2="116.128" gradientUnits="userSpaceOnUse">
<stop stop-color="#D80023"/>
<stop offset="0.370128" stop-color="#FC2144"/>
<stop offset="0.605261" stop-color="#D80023"/>
<stop offset="1" stop-color="#FF0000"/>
</linearGradient>
<linearGradient id="paint1_linear_153_3" x1="307.005" y1="-78.5909" x2="75.751" y2="100.3" gradientUnits="userSpaceOnUse">
<stop stop-color="#D80023"/>
<stop offset="0.370128" stop-color="#FC2144"/>
<stop offset="0.605261" stop-color="#D80023"/>
<stop offset="1" stop-color="#FF0000"/>
</linearGradient>
<linearGradient id="paint2_linear_153_3" x1="209.245" y1="53.5104" x2="73.7048" y2="53.5104" gradientUnits="userSpaceOnUse">
<stop stop-color="white" stop-opacity="0.77"/>
<stop offset="0.370128" stop-color="white"/>
<stop offset="0.605261" stop-color="white"/>
<stop offset="1" stop-color="white" stop-opacity="0.8"/>
</linearGradient>
<linearGradient id="paint3_linear_153_3" x1="194.328" y1="96.5989" x2="88.6738" y2="96.5989" gradientUnits="userSpaceOnUse">
<stop stop-color="white" stop-opacity="0.77"/>
<stop offset="0.370128" stop-color="white"/>
<stop offset="0.605261" stop-color="white"/>
<stop offset="1" stop-color="white" stop-opacity="0.8"/>
</linearGradient>
</defs>
</svg>
