<svg width="541" height="271" viewBox="0 0 541 271" fill="none" xmlns="http://www.w3.org/2000/svg">
<path d="M11.3649 12.4904V17.8804H0.164883V11.0904C0.164883 8.15043 1.12155 5.70043 3.03488 3.74043C4.99488 1.73376 7.95822 0.730428 11.9249 0.730428H13.9549C21.9349 0.730428 25.9249 4.18376 25.9249 11.0904V16.2704C25.9249 19.5838 24.7349 22.1271 22.3549 23.9004C23.6149 24.3204 24.6182 25.1138 25.3649 26.2804C26.1116 27.4471 26.4849 28.8704 26.4849 30.5504V42.5204C26.4849 46.2538 25.4116 49.1471 23.2649 51.2004C21.1182 53.2071 18.1082 54.2104 14.2349 54.2104H12.3449C8.00488 54.2104 4.85488 53.2304 2.89488 51.2704C0.98155 49.2638 0.0248829 46.8138 0.0248829 43.9204V34.1204H11.4349V41.8204C11.4349 43.0804 11.9716 43.7104 13.0449 43.7104C14.1182 43.7104 14.6549 43.0804 14.6549 41.8204V32.9304C14.6549 32.2304 14.5616 31.7638 14.3749 31.5304C14.1882 31.2971 13.7682 31.1804 13.1149 31.1804H7.58488V20.6104H12.6949C13.8149 20.6104 14.3749 20.0038 14.3749 18.7904V12.4904C14.3749 11.7904 14.2582 11.3004 14.0249 11.0204C13.7916 10.7404 13.3949 10.6004 12.8349 10.6004C11.8549 10.6004 11.3649 11.2304 11.3649 12.4904ZM43.6721 53.4404L42.8321 45.8104H37.5121L36.7421 53.4404H26.7321L33.3821 1.36043H47.5921L54.8721 53.4404H43.6721ZM40.1721 19.7004L38.5621 35.5204H41.7821L40.1721 19.7004ZM83.4988 60.7904V53.4404H71.8788V60.7904H62.0088V42.4504H63.7588C64.1788 41.7038 64.5055 39.3704 64.7388 35.4504C64.9255 31.5304 65.1121 20.1671 65.2988 1.36043H90.7088V42.4504H93.3688V60.7904H83.4988ZM75.0288 34.8904C74.7955 38.2038 74.4455 40.8404 73.9788 42.8004H79.5788V12.1404H75.5188C75.2388 26.5138 75.0755 34.0971 75.0288 34.8904ZM122.988 15.3604V40.0704C122.988 44.5504 121.844 48.0271 119.558 50.5004C117.271 52.9738 114.121 54.2104 110.108 54.2104H107.868C103.668 54.2104 100.448 52.9971 98.2075 50.5704C95.9675 48.0971 94.8475 44.5971 94.8475 40.0704V15.3604C94.8475 5.56043 99.1642 0.660429 107.798 0.660429H110.038C118.671 0.660429 122.988 5.56043 122.988 15.3604ZM111.018 40.8404V14.1704C111.018 12.2104 110.318 11.2304 108.918 11.2304C107.518 11.2304 106.818 12.2104 106.818 14.1704V40.8404C106.818 42.5671 107.541 43.4304 108.988 43.4304C110.341 43.4304 111.018 42.5671 111.018 40.8404ZM124.857 53.4404V1.36043H151.527V53.4404H139.977V12.1404H136.407V53.4404H124.857ZM181.913 15.3604V40.0704C181.913 44.5504 180.77 48.0271 178.483 50.5004C176.197 52.9738 173.047 54.2104 169.033 54.2104H166.793C162.593 54.2104 159.373 52.9971 157.133 50.5704C154.893 48.0971 153.773 44.5971 153.773 40.0704V15.3604C153.773 5.56043 158.09 0.660429 166.723 0.660429H168.963C177.597 0.660429 181.913 5.56043 181.913 15.3604ZM169.943 40.8404V14.1704C169.943 12.2104 169.243 11.2304 167.843 11.2304C166.443 11.2304 165.743 12.2104 165.743 14.1704V40.8404C165.743 42.5671 166.467 43.4304 167.913 43.4304C169.267 43.4304 169.943 42.5671 169.943 40.8404ZM183.923 53.4404V1.36043H197.713L200.583 25.7204L203.593 1.36043H216.613V53.4404H206.673V25.0204L202.263 53.4404H198.133L193.723 25.0204V53.4404H183.923ZM246.923 15.3604V40.0704C246.923 44.5504 245.78 48.0271 243.493 50.5004C241.206 52.9738 238.056 54.2104 234.043 54.2104H231.803C227.603 54.2104 224.383 52.9971 222.143 50.5704C219.903 48.0971 218.783 44.5971 218.783 40.0704V15.3604C218.783 5.56043 223.1 0.660429 231.733 0.660429H233.973C242.606 0.660429 246.923 5.56043 246.923 15.3604ZM234.953 40.8404V14.1704C234.953 12.2104 234.253 11.2304 232.853 11.2304C231.453 11.2304 230.753 12.2104 230.753 14.1704V40.8404C230.753 42.5671 231.476 43.4304 232.923 43.4304C234.276 43.4304 234.953 42.5671 234.953 40.8404ZM248.793 53.4404V1.36043H270.143V12.1404H260.203V53.4404H248.793ZM300.038 15.3604V40.0704C300.038 44.5504 298.895 48.0271 296.608 50.5004C294.322 52.9738 291.172 54.2104 287.158 54.2104H284.918C280.718 54.2104 277.498 52.9971 275.258 50.5704C273.018 48.0971 271.898 44.5971 271.898 40.0704V15.3604C271.898 5.56043 276.215 0.660429 284.848 0.660429H287.088C295.722 0.660429 300.038 5.56043 300.038 15.3604ZM288.068 40.8404V14.1704C288.068 12.2104 287.368 11.2304 285.968 11.2304C284.568 11.2304 283.868 12.2104 283.868 14.1704V40.8404C283.868 42.5671 284.592 43.4304 286.038 43.4304C287.392 43.4304 288.068 42.5671 288.068 40.8404ZM344.398 15.3604V40.0704C344.398 44.5504 343.255 48.0271 340.968 50.5004C338.681 52.9738 335.531 54.2104 331.518 54.2104H329.208C325.008 54.2104 321.788 52.9971 319.548 50.5704C317.308 48.0971 316.188 44.5971 316.188 40.0704V31.9504H313.458V53.4404H301.908V1.36043H313.458V20.6104H316.188V15.3604C316.188 5.56043 320.528 0.660429 329.208 0.660429H331.448C340.081 0.660429 344.398 5.56043 344.398 15.3604ZM332.428 40.8404V14.1704C332.428 12.2104 331.728 11.2304 330.328 11.2304C328.928 11.2304 328.228 12.2104 328.228 14.1704V40.8404C328.228 42.5671 328.928 43.4304 330.328 43.4304C331.728 43.4304 332.428 42.5671 332.428 40.8404ZM365.266 30.4104H354.346V1.36043H378.706V11.6504H364.986V20.4704C367.273 17.3438 369.7 15.7804 372.266 15.7804H372.966C375.16 15.7804 376.84 16.5504 378.006 18.0904C379.173 19.6304 379.756 21.4504 379.756 23.5504V43.2204C379.756 46.3471 378.706 48.9604 376.606 51.0604C374.553 53.1604 371.706 54.2104 368.066 54.2104H365.266C361.253 54.2104 358.336 53.2538 356.516 51.3404C354.743 49.3804 353.856 47.0004 353.856 44.2004V34.3304H364.986V42.1004C364.986 43.4071 365.5 44.0604 366.526 44.0604C367.46 44.0604 367.926 43.4071 367.926 42.1004V27.4004C367.926 26.0938 367.483 25.4404 366.596 25.4404C365.71 25.4404 365.266 26.0938 365.266 27.4004V30.4104ZM0.374883 123.44V71.3604H27.0449V123.44H15.4949V82.1404H11.9249V123.44H0.374883ZM46.4409 103.35H40.9109V123.44H29.4309V71.3604H46.0909C49.4976 71.3604 51.9709 72.2238 53.5109 73.9504C55.0976 75.6771 55.8909 78.3138 55.8909 81.8604V92.6404C55.8909 96.0471 55.0509 98.6838 53.3709 100.55C51.7376 102.417 49.4276 103.35 46.4409 103.35ZM40.9109 80.4604V93.7604H42.3109C43.1042 93.7604 43.6409 93.5738 43.9209 93.2004C44.2009 92.7804 44.3409 92.1271 44.3409 91.2404V83.0504C44.3409 82.1638 44.2009 81.5104 43.9209 81.0904C43.6409 80.6704 43.1042 80.4604 42.3109 80.4604H40.9109ZM85.7317 85.3604V110.07C85.7317 114.55 84.5883 118.027 82.3017 120.5C80.015 122.974 76.865 124.21 72.8517 124.21H70.6117C66.4117 124.21 63.1917 122.997 60.9517 120.57C58.7117 118.097 57.5917 114.597 57.5917 110.07V85.3604C57.5917 75.5604 61.9083 70.6604 70.5417 70.6604H72.7817C81.415 70.6604 85.7317 75.5604 85.7317 85.3604ZM73.7617 110.84V84.1704C73.7617 82.2104 73.0617 81.2304 71.6617 81.2304C70.2617 81.2304 69.5617 82.2104 69.5617 84.1704V110.84C69.5617 112.567 70.285 113.43 71.7317 113.43C73.085 113.43 73.7617 112.567 73.7617 110.84ZM103.351 111.12V100.69H114.761V111.47C114.761 115.11 113.758 118.167 111.751 120.64C109.791 123.067 106.688 124.28 102.441 124.28H100.411C91.8714 124.28 87.6014 119.684 87.6014 110.49V84.0304C87.6014 79.9704 88.6048 76.7271 90.6114 74.3004C92.6648 71.8738 95.9081 70.6604 100.341 70.6604H102.441C110.655 70.6604 114.761 74.7204 114.761 82.8404V91.3804H103.351V83.3304C103.351 81.6038 102.721 80.7404 101.461 80.7404C100.761 80.7404 100.271 80.9271 99.9914 81.3004C99.7114 81.6738 99.5714 82.3504 99.5714 83.3304V111.12C99.5714 112.94 100.225 113.85 101.531 113.85C102.745 113.85 103.351 112.94 103.351 111.12ZM115.959 71.3604H140.459V82.1404H133.949V123.44H122.469V82.1404H115.959V71.3604ZM152.727 71.3604V97.4004L158.327 71.3604H169.107V123.44H158.327V97.5404L152.727 123.44H141.947V71.3604H152.727ZM176.242 95.5804L170.642 71.3604H182.332L184.782 86.6204L187.162 71.3604H198.152L192.832 95.5804L199.202 123.44H187.582L184.502 105.87L181.282 123.44H170.012L176.242 95.5804ZM224.444 123.44L219.264 102.65V123.44H207.714V71.3604H219.264V89.8404L224.654 71.3604H236.134L229.064 94.5304L236.554 123.44H224.444ZM254.322 103.35H248.792V123.44H237.312V71.3604H253.972C257.378 71.3604 259.852 72.2238 261.392 73.9504C262.978 75.6771 263.772 78.3138 263.772 81.8604V92.6404C263.772 96.0471 262.932 98.6838 261.252 100.55C259.618 102.417 257.308 103.35 254.322 103.35ZM248.792 80.4604V93.7604H250.192C250.985 93.7604 251.522 93.5738 251.802 93.2004C252.082 92.7804 252.222 92.1271 252.222 91.2404V83.0504C252.222 82.1638 252.082 81.5104 251.802 81.0904C251.522 80.6704 250.985 80.4604 250.192 80.4604H248.792ZM293.613 85.3604V110.07C293.613 114.55 292.469 118.027 290.183 120.5C287.896 122.974 284.746 124.21 280.733 124.21H278.493C274.293 124.21 271.073 122.997 268.833 120.57C266.593 118.097 265.473 114.597 265.473 110.07V85.3604C265.473 75.5604 269.789 70.6604 278.423 70.6604H280.663C289.296 70.6604 293.613 75.5604 293.613 85.3604ZM281.643 110.84V84.1704C281.643 82.2104 280.943 81.2304 279.543 81.2304C278.143 81.2304 277.443 82.2104 277.443 84.1704V110.84C277.443 112.567 278.166 113.43 279.613 113.43C280.966 113.43 281.643 112.567 281.643 110.84ZM312.422 123.44L307.242 102.65V123.44H295.692V71.3604H307.242V89.8404L312.632 71.3604H324.112L317.042 94.5304L324.532 123.44H312.422ZM336.84 71.3604V123.44H325.29V71.3604H336.84ZM339.099 123.44V71.3604H356.599C359.679 71.3604 361.966 72.1304 363.459 73.6704C364.999 75.2104 365.769 77.7071 365.769 81.1604V86.9004C365.769 89.0938 365.232 90.8671 364.159 92.2204C363.132 93.5738 362.059 94.4371 360.939 94.8104C364.812 96.0238 366.749 98.9871 366.749 103.7V111.4C366.749 119.427 363.599 123.44 357.299 123.44H339.099ZM352.539 100.48H350.649V114.2H352.749C353.449 114.2 353.939 114.014 354.219 113.64C354.546 113.22 354.709 112.474 354.709 111.4V103.14C354.709 102.16 354.546 101.484 354.219 101.11C353.939 100.69 353.379 100.48 352.539 100.48ZM352.329 80.2504H350.649V91.4504H352.259C353.659 91.4504 354.359 90.5871 354.359 88.8604V82.7004C354.359 81.8604 354.219 81.2538 353.939 80.8804C353.659 80.4604 353.122 80.2504 352.329 80.2504ZM376.15 123.44V71.3604H389.94L392.81 95.7204L395.82 71.3604H408.84V123.44H398.9V95.0204L394.49 123.44H390.36L385.95 95.0204V123.44H376.15ZM439.15 85.3604V110.07C439.15 114.55 438.006 118.027 435.72 120.5C433.433 122.974 430.283 124.21 426.27 124.21H424.03C419.83 124.21 416.61 122.997 414.37 120.57C412.13 118.097 411.01 114.597 411.01 110.07V85.3604C411.01 75.5604 415.326 70.6604 423.96 70.6604H426.2C434.833 70.6604 439.15 75.5604 439.15 85.3604ZM427.18 110.84V84.1704C427.18 82.2104 426.48 81.2304 425.08 81.2304C423.68 81.2304 422.98 82.2104 422.98 84.1704V110.84C422.98 112.567 423.703 113.43 425.15 113.43C426.503 113.43 427.18 112.567 427.18 110.84ZM455.119 123.44V101.53L450.289 123.44H438.389L445.459 95.1604L438.529 71.3604H450.079L455.119 90.8204V71.3604H466.319V90.7504L471.289 71.3604H482.769L475.979 94.6004L483.189 123.44H471.149L466.319 101.74V123.44H455.119ZM499.352 123.44V102.44H495.362V123.44H483.812V71.3604H495.362V90.2604H499.352V71.3604H510.902V123.44H499.352ZM528.887 123.44L528.047 115.81H522.727L521.957 123.44H511.947L518.597 71.3604H532.807L540.087 123.44H528.887ZM525.387 89.7004L523.777 105.52H526.997L525.387 89.7004ZM11.3649 152.49V157.88H0.164883V151.09C0.164883 148.15 1.12155 145.7 3.03488 143.74C4.99488 141.734 7.95822 140.73 11.9249 140.73H13.9549C21.9349 140.73 25.9249 144.184 25.9249 151.09V156.27C25.9249 159.584 24.7349 162.127 22.3549 163.9C23.6149 164.32 24.6182 165.114 25.3649 166.28C26.1116 167.447 26.4849 168.87 26.4849 170.55V182.52C26.4849 186.254 25.4116 189.147 23.2649 191.2C21.1182 193.207 18.1082 194.21 14.2349 194.21H12.3449C8.00488 194.21 4.85488 193.23 2.89488 191.27C0.98155 189.264 0.0248829 186.814 0.0248829 183.92V174.12H11.4349V181.82C11.4349 183.08 11.9716 183.71 13.0449 183.71C14.1182 183.71 14.6549 183.08 14.6549 181.82V172.93C14.6549 172.23 14.5616 171.764 14.3749 171.53C14.1882 171.297 13.7682 171.18 13.1149 171.18H7.58488V160.61H12.6949C13.8149 160.61 14.3749 160.004 14.3749 158.79V152.49C14.3749 151.79 14.2582 151.3 14.0249 151.02C13.7916 150.74 13.3949 150.6 12.8349 150.6C11.8549 150.6 11.3649 151.23 11.3649 152.49ZM43.6721 193.44L42.8321 185.81H37.5121L36.7421 193.44H26.7321L33.3821 141.36H47.5921L54.8721 193.44H43.6721ZM40.1721 159.7L38.5621 175.52H41.7821L40.1721 159.7ZM72.6225 173.35H67.0925V193.44H55.6125V141.36H72.2725C75.6792 141.36 78.1525 142.224 79.6925 143.95C81.2792 145.677 82.0725 148.314 82.0725 151.86V162.64C82.0725 166.047 81.2325 168.684 79.5525 170.55C77.9192 172.417 75.6092 173.35 72.6225 173.35ZM67.0925 150.46V163.76H68.4925C69.2859 163.76 69.8225 163.574 70.1025 163.2C70.3825 162.78 70.5225 162.127 70.5225 161.24V153.05C70.5225 152.164 70.3825 151.51 70.1025 151.09C69.8225 150.67 69.2859 150.46 68.4925 150.46H67.0925ZM111.913 155.36V180.07C111.913 184.55 110.77 188.027 108.483 190.5C106.197 192.974 103.047 194.21 99.0333 194.21H96.7933C92.5933 194.21 89.3733 192.997 87.1333 190.57C84.8933 188.097 83.7733 184.597 83.7733 180.07V155.36C83.7733 145.56 88.09 140.66 96.7233 140.66H98.9633C107.597 140.66 111.913 145.56 111.913 155.36ZM99.9433 180.84V154.17C99.9433 152.21 99.2433 151.23 97.8433 151.23C96.4433 151.23 95.7433 152.21 95.7433 154.17V180.84C95.7433 182.567 96.4667 183.43 97.9133 183.43C99.2667 183.43 99.9433 182.567 99.9433 180.84ZM113.783 193.44V141.36H137.653V152.14H125.263V160.54H130.793C133.78 160.54 136.09 161.474 137.723 163.34C139.403 165.207 140.243 167.867 140.243 171.32V182.94C140.243 186.487 139.45 189.124 137.863 190.85C136.323 192.577 133.85 193.44 130.443 193.44H113.783ZM125.263 184.34H126.663C127.456 184.34 127.993 184.13 128.273 183.71C128.553 183.29 128.693 182.637 128.693 181.75V172.65C128.693 171.764 128.553 171.134 128.273 170.76C127.993 170.34 127.456 170.13 126.663 170.13H125.263V184.34ZM152.796 141.36V167.4L158.396 141.36H169.176V193.44H158.396V167.54L152.796 193.44H142.016V141.36H152.796ZM170.92 141.36H195.42V152.14H188.91V193.44H177.43V152.14H170.92V141.36ZM207.688 141.36V167.4L213.288 141.36H224.068V193.44H213.288V167.54L207.688 193.44H196.908V141.36H207.688ZM233.959 193.44V141.36H260.629V193.44H249.079V152.14H245.509V193.44H233.959ZM274.565 141.36V193.44H263.015V141.36H274.565ZM297.053 200.79V193.44H285.433V200.79H275.563V182.45H277.313C277.733 181.704 278.06 179.37 278.293 175.45C278.48 171.53 278.667 160.167 278.853 141.36H304.263V182.45H306.923V200.79H297.053ZM288.583 174.89C288.35 178.204 288 180.84 287.533 182.8H293.133V152.14H289.073C288.793 166.514 288.63 174.097 288.583 174.89ZM342.798 193.44H331.248V172.44C329.988 172.907 328.355 173.14 326.348 173.14H326.068C319.208 173.14 315.778 169.734 315.778 162.92V141.36H327.258V159.91C327.258 161.077 327.422 161.87 327.748 162.29C328.075 162.664 328.658 162.85 329.498 162.85H329.638C330.385 162.85 330.922 162.757 331.248 162.57V141.36H342.798V193.44ZM360.723 193.44L359.883 185.81H354.563L353.793 193.44H343.783L350.433 141.36H364.643L371.923 193.44H360.723ZM357.223 159.7L355.613 175.52H358.833L357.223 159.7ZM387.658 181.12V170.69H399.068V181.47C399.068 185.11 398.065 188.167 396.058 190.64C394.098 193.067 390.995 194.28 386.748 194.28H384.718C376.178 194.28 371.908 189.684 371.908 180.49V154.03C371.908 149.97 372.911 146.727 374.918 144.3C376.971 141.874 380.215 140.66 384.648 140.66H386.748C394.961 140.66 399.068 144.72 399.068 152.84V161.38H387.658V153.33C387.658 151.604 387.028 150.74 385.768 150.74C385.068 150.74 384.578 150.927 384.298 151.3C384.018 151.674 383.878 152.35 383.878 153.33V181.12C383.878 182.94 384.531 183.85 385.838 183.85C387.051 183.85 387.658 182.94 387.658 181.12ZM408.689 193.44V141.36H426.189C429.269 141.36 431.555 142.13 433.049 143.67C434.589 145.21 435.359 147.707 435.359 151.16V156.9C435.359 159.094 434.822 160.867 433.749 162.22C432.722 163.574 431.649 164.437 430.529 164.81C434.402 166.024 436.339 168.987 436.339 173.7V181.4C436.339 189.427 433.189 193.44 426.889 193.44H408.689ZM422.129 170.48H420.239V184.2H422.339C423.039 184.2 423.529 184.014 423.809 183.64C424.135 183.22 424.299 182.474 424.299 181.4V173.14C424.299 172.16 424.135 171.484 423.809 171.11C423.529 170.69 422.969 170.48 422.129 170.48ZM421.919 150.25H420.239V161.45H421.849C423.249 161.45 423.949 160.587 423.949 158.86V152.7C423.949 151.86 423.809 151.254 423.529 150.88C423.249 150.46 422.712 150.25 421.919 150.25ZM449.633 141.36V193.44H438.083V141.36H449.633ZM462.532 141.36V167.4L468.132 141.36H478.912V193.44H468.132V167.54L462.532 193.44H451.752V141.36H462.532ZM465.682 139.96H465.332C462.719 139.96 460.642 139.237 459.102 137.79C457.609 136.344 456.862 134.43 456.862 132.05V131.49H463.792V131.91C463.792 133.17 464.352 133.8 465.472 133.8H465.542C466.662 133.8 467.222 133.17 467.222 131.91V131.49H474.082V132.05C474.082 134.384 473.289 136.297 471.702 137.79C470.162 139.237 468.155 139.96 465.682 139.96ZM496.686 193.44V172.44H492.696V193.44H481.146V141.36H492.696V160.26H496.686V141.36H508.236V193.44H496.686ZM521.321 141.36V167.4L526.921 141.36H537.701V193.44H526.921V167.54L521.321 193.44H510.541V141.36H521.321Z" fill="url(#paint0_linear_313_320)"/>
<path d="M0.374883 263.44V211.36H24.2449V222.14H11.8549V230.54H17.3849C20.3716 230.54 22.6816 231.474 24.3149 233.34C25.9949 235.207 26.8349 237.867 26.8349 241.32V252.94C26.8349 256.487 26.0416 259.124 24.4549 260.85C22.9149 262.577 20.4416 263.44 17.0349 263.44H0.374883ZM11.8549 254.34H13.2549C14.0482 254.34 14.5849 254.13 14.8649 253.71C15.1449 253.29 15.2849 252.637 15.2849 251.75V242.65C15.2849 241.764 15.1449 241.134 14.8649 240.76C14.5849 240.34 14.0482 240.13 13.2549 240.13H11.8549V254.34ZM28.7473 211.36H50.3773V222.14H40.1573V231.03H48.3473V242.09H40.1573V252.45H50.7973V263.44H28.7473V211.36ZM63.2496 222.49V227.88H52.0496V221.09C52.0496 218.15 53.0063 215.7 54.9196 213.74C56.8796 211.734 59.843 210.73 63.8096 210.73H65.8396C73.8196 210.73 77.8096 214.184 77.8096 221.09V226.27C77.8096 229.584 76.6196 232.127 74.2396 233.9C75.4996 234.32 76.503 235.114 77.2497 236.28C77.9963 237.447 78.3697 238.87 78.3697 240.55V252.52C78.3697 256.254 77.2963 259.147 75.1497 261.2C73.003 263.207 69.993 264.21 66.1196 264.21H64.2296C59.8896 264.21 56.7396 263.23 54.7796 261.27C52.8663 259.264 51.9096 256.814 51.9096 253.92V244.12H63.3196V251.82C63.3196 253.08 63.8563 253.71 64.9296 253.71C66.003 253.71 66.5396 253.08 66.5396 251.82V242.93C66.5396 242.23 66.4463 241.764 66.2596 241.53C66.073 241.297 65.653 241.18 64.9996 241.18H59.4696V230.61H64.5796C65.6996 230.61 66.2596 230.004 66.2596 228.79V222.49C66.2596 221.79 66.143 221.3 65.9096 221.02C65.6763 220.74 65.2796 220.6 64.7196 220.6C63.7396 220.6 63.2496 221.23 63.2496 222.49ZM87.9465 263.44V211.36H105.447C108.527 211.36 110.813 212.13 112.307 213.67C113.847 215.21 114.617 217.707 114.617 221.16V226.9C114.617 229.094 114.08 230.867 113.007 232.22C111.98 233.574 110.907 234.437 109.787 234.81C113.66 236.024 115.597 238.987 115.597 243.7V251.4C115.597 259.427 112.447 263.44 106.147 263.44H87.9465ZM101.387 240.48H99.4965V254.2H101.597C102.297 254.2 102.787 254.014 103.067 253.64C103.393 253.22 103.557 252.474 103.557 251.4V243.14C103.557 242.16 103.393 241.484 103.067 241.11C102.787 240.69 102.227 240.48 101.387 240.48ZM101.177 220.25H99.4965V231.45H101.107C102.507 231.45 103.207 230.587 103.207 228.86V222.7C103.207 221.86 103.067 221.254 102.787 220.88C102.507 220.46 101.97 220.25 101.177 220.25ZM134.141 263.44L128.961 242.65V263.44H117.411V211.36H128.961V229.84L134.351 211.36H145.831L138.761 234.53L146.251 263.44H134.141ZM149.109 248.81C149.436 241.857 149.599 229.374 149.599 211.36H174.799V263.44H163.249V222.14H160.099C160.099 236.14 159.912 246.197 159.539 252.31C159.259 256.464 158.302 259.357 156.669 260.99C155.082 262.624 152.282 263.44 148.269 263.44H146.099V252.31H146.659C147.592 252.31 148.222 252.054 148.549 251.54C148.876 250.98 149.062 250.07 149.109 248.81ZM192.764 263.44L191.924 255.81H186.604L185.834 263.44H175.824L182.474 211.36H196.684L203.964 263.44H192.764ZM189.264 229.7L187.654 245.52H190.874L189.264 229.7ZM224.934 270.79V263.44H213.314V270.79H203.444V252.45H205.194C205.614 251.704 205.941 249.37 206.174 245.45C206.361 241.53 206.548 230.167 206.734 211.36H232.144V252.45H234.804V270.79H224.934ZM216.464 244.89C216.231 248.204 215.881 250.84 215.414 252.8H221.014V222.14H216.954C216.674 236.514 216.511 244.097 216.464 244.89ZM236.423 211.36H258.053V222.14H247.833V231.03H256.023V242.09H247.833V252.45H258.473V263.44H236.423V211.36ZM275.475 263.44V242.44H271.485V263.44H259.935V211.36H271.485V230.26H275.475V211.36H287.025V263.44H275.475ZM300.81 229.84H306.34C309.327 229.84 311.637 230.774 313.27 232.64C314.95 234.507 315.79 237.167 315.79 240.62V252.94C315.79 256.487 314.997 259.124 313.41 260.85C311.87 262.577 309.397 263.44 305.99 263.44H289.33V211.36H300.81V229.84ZM300.81 254.34H302.21C303.003 254.34 303.54 254.13 303.82 253.71C304.1 253.29 304.24 252.637 304.24 251.75V241.95C304.24 241.064 304.1 240.434 303.82 240.06C303.54 239.64 303.003 239.43 302.21 239.43H300.81V254.34Z" fill="url(#paint1_linear_313_320)"/>
<path d="M-0.745117 276.6H316.49V282.48H-0.745117V276.6Z" fill="url(#paint2_linear_313_320)"/>
<defs>
<linearGradient id="paint0_linear_313_320" x1="46.1371" y1="136.445" x2="554.232" y2="136.445" gradientUnits="userSpaceOnUse">
<stop stop-color="#0E0E0E"/>
<stop offset="0.536458" stop-color="#595959"/>
<stop offset="1" stop-color="#0E0E0E"/>
</linearGradient>
<linearGradient id="paint1_linear_313_320" x1="700.048" y1="140.055" x2="-148.024" y2="140.055" gradientUnits="userSpaceOnUse">
<stop stop-color="#D80023"/>
<stop offset="0.370128" stop-color="#FC2144"/>
<stop offset="0.605261" stop-color="#D80023"/>
<stop offset="1" stop-color="#FF0000"/>
</linearGradient>
<linearGradient id="paint2_linear_313_320" x1="700.048" y1="140.055" x2="-148.024" y2="140.055" gradientUnits="userSpaceOnUse">
<stop stop-color="#D80023"/>
<stop offset="0.370128" stop-color="#FC2144"/>
<stop offset="0.605261" stop-color="#D80023"/>
<stop offset="1" stop-color="#FF0000"/>
</linearGradient>
</defs>
</svg>
