<svg width="283" height="339" viewBox="0 0 283 339" fill="none" xmlns="http://www.w3.org/2000/svg">
<g filter="url(#filter0_dddddd_202_135)">
<path d="M87.4033 32.6549C87.4033 31.5577 88.2928 30.6682 89.39 30.6682H194.09C195.188 30.6682 196.077 31.5577 196.077 32.6549V127.23C196.077 128.223 195.344 129.063 194.361 129.198L89.6603 143.577C88.4668 143.741 87.4033 142.813 87.4033 141.609V32.6549Z" fill="#F5F5F5"/>
</g>
<g filter="url(#filter1_d_202_135)">
<path d="M73.1045 -4.29023C73.1045 -5.38742 73.9939 -6.27686 75.0911 -6.27686H208.39C209.487 -6.27686 210.377 -5.38741 210.377 -4.29022V117.189C210.377 118.181 209.645 119.021 208.662 119.157L75.3636 137.615C74.1695 137.781 73.1045 136.853 73.1045 135.647V-4.29023Z" fill="#F9F9F9"/>
</g>
<path d="M59.792 121.834L63.116 121.834L63.116 123.634L61.376 123.634L61.376 129.562L63.116 129.562L63.116 131.362L59.792 131.35L59.792 131.014C59.776 130.51 59.408 130.154 58.688 129.946C57.968 129.738 56.94 129.61 55.604 129.562L52.976 129.466L52.976 123.01L59.792 123.01L59.792 121.834ZM55.784 127.846C56.784 127.886 57.624 127.97 58.304 128.098C58.976 128.226 59.472 128.422 59.792 128.686L59.792 124.93L54.56 124.93L54.56 127.81L55.784 127.846ZM52.976 112.438L61.376 112.438L61.376 114.358L54.56 114.358L54.56 117.238L56.312 117.298C57.504 117.338 58.472 117.434 59.216 117.586C59.952 117.738 60.52 117.994 60.92 118.354C61.312 118.706 61.508 119.202 61.508 119.842C61.508 120.106 61.464 120.426 61.376 120.802L59.732 120.682C59.764 120.578 59.78 120.462 59.78 120.334C59.78 119.87 59.508 119.546 58.964 119.362C58.412 119.178 57.552 119.062 56.384 119.014L52.976 118.894L52.976 112.438ZM52.976 109.74L52.976 107.808L58.448 107.808L52.976 103.8L52.976 101.976L61.376 101.976L61.376 103.896L55.916 103.896L61.376 107.904L61.376 109.74L52.976 109.74ZM54.56 92.8643L54.56 95.5523L61.376 95.5523L61.376 97.4723L54.56 97.4723L54.56 100.148L52.976 100.148L52.976 92.8643L54.56 92.8643ZM59.816 84.5397L61.376 84.5397L61.376 91.0437L52.976 91.0437L52.976 84.6957L54.536 84.6957L54.536 89.1117L56.36 89.1117L56.36 85.2117L57.872 85.2117L57.872 89.1117L59.816 89.1117L59.816 84.5397ZM52.976 74.8815L61.376 74.8815L61.376 76.8015L54.56 76.8015L54.56 79.6815L56.312 79.7415C57.504 79.7815 58.472 79.8775 59.216 80.0295C59.952 80.1815 60.52 80.4375 60.92 80.7975C61.312 81.1495 61.508 81.6455 61.508 82.2855C61.508 82.5495 61.464 82.8695 61.376 83.2455L59.732 83.1255C59.764 83.0215 59.78 82.9055 59.78 82.7775C59.78 82.3135 59.508 81.9895 58.964 81.8055C58.412 81.6215 57.552 81.5055 56.384 81.4575L52.976 81.3375L52.976 74.8815ZM55.736 68.1155C55.736 67.0915 55.964 66.3075 56.42 65.7635C56.876 65.2115 57.552 64.9355 58.448 64.9355C59.4 64.9355 60.128 65.2395 60.632 65.8475C61.128 66.4475 61.376 67.2955 61.376 68.3915L61.376 72.1835L52.976 72.1836L52.976 70.2516L55.736 70.2516L55.736 68.1155ZM59.936 68.4995C59.936 67.9955 59.812 67.6035 59.564 67.3235C59.316 67.0356 58.956 66.8916 58.484 66.8916C57.612 66.8916 57.176 67.4276 57.176 68.4995L57.176 70.2516L59.936 70.2515L59.936 68.4995ZM52.976 55.2311L61.376 55.2311L61.376 57.1751L57.932 57.1751L57.932 60.9911L61.376 60.9911L61.376 62.9351L52.976 62.9351L52.976 60.9911L56.288 60.9911L56.288 57.1751L52.976 57.1751L52.976 55.2311ZM61.52 48.5185C61.52 49.3905 61.332 50.1785 60.956 50.8825C60.58 51.5785 60.064 52.1265 59.408 52.5265C58.744 52.9185 58 53.1145 57.176 53.1145C56.352 53.1145 55.612 52.9185 54.956 52.5265C54.292 52.1265 53.772 51.5785 53.396 50.8825C53.02 50.1785 52.832 49.3905 52.832 48.5185C52.832 47.6465 53.02 46.8625 53.396 46.1665C53.772 45.4705 54.292 44.9225 54.956 44.5225C55.612 44.1225 56.352 43.9225 57.176 43.9225C58 43.9225 58.744 44.1225 59.408 44.5225C60.064 44.9225 60.58 45.4705 60.956 46.1665C61.332 46.8625 61.52 47.6465 61.52 48.5185ZM59.864 48.5185C59.864 48.0225 59.752 47.5745 59.528 47.1745C59.296 46.7745 58.976 46.4625 58.568 46.2385C58.16 46.0065 57.696 45.8905 57.176 45.8905C56.656 45.8905 56.192 46.0065 55.784 46.2385C55.376 46.4625 55.06 46.7745 54.836 47.1745C54.604 47.5745 54.488 48.0225 54.488 48.5185C54.488 49.0145 54.604 49.4625 54.836 49.8625C55.06 50.2625 55.376 50.5785 55.784 50.8105C56.192 51.0345 56.656 51.1465 57.176 51.1465C57.696 51.1465 58.16 51.0345 58.568 50.8105C58.976 50.5785 59.296 50.2625 59.528 49.8625C59.752 49.4625 59.864 49.0145 59.864 48.5185ZM61.52 37.853C61.52 38.709 61.336 39.485 60.968 40.181C60.592 40.869 60.076 41.413 59.42 41.813C58.756 42.205 58.008 42.401 57.176 42.401C56.344 42.401 55.6 42.205 54.944 41.813C54.28 41.413 53.764 40.869 53.396 40.181C53.02 39.485 52.832 38.705 52.832 37.841C52.832 37.113 52.96 36.457 53.216 35.873C53.472 35.281 53.84 34.785 54.32 34.385L55.472 35.633C54.816 36.201 54.488 36.905 54.488 37.745C54.488 38.265 54.604 38.729 54.836 39.137C55.06 39.545 55.376 39.865 55.784 40.097C56.192 40.321 56.656 40.433 57.176 40.433C57.696 40.433 58.16 40.321 58.568 40.097C58.976 39.865 59.296 39.545 59.528 39.137C59.752 38.729 59.864 38.265 59.864 37.745C59.864 36.905 59.532 36.201 58.868 35.633L60.02 34.385C60.508 34.785 60.88 35.281 61.136 35.873C61.392 36.465 61.52 37.125 61.52 37.853ZM54.56 26.18L54.56 28.868L61.376 28.868L61.376 30.788L54.56 30.788L54.56 33.464L52.976 33.464L52.976 26.18L54.56 26.18ZM55.736 20.2913C55.736 19.2673 55.964 18.4833 56.42 17.9393C56.876 17.3873 57.552 17.1113 58.448 17.1113C59.4 17.1113 60.128 17.4153 60.632 18.0233C61.128 18.6233 61.376 19.4713 61.376 20.5673L61.376 24.3593L52.976 24.3593L52.976 22.4273L55.736 22.4273L55.736 20.2913ZM59.936 20.6753C59.936 20.1713 59.812 19.7793 59.564 19.4993C59.316 19.2113 58.956 19.0673 58.484 19.0673C57.612 19.0673 57.176 19.6033 57.176 20.6753L57.176 22.4273L59.936 22.4273L59.936 20.6753Z" fill="#474747"/>
<path d="M122.181 57.495H121.645C119.371 57.495 117.587 56.6922 116.293 55.0866C115.045 53.4364 114.42 51.4071 114.42 48.9988V35.6859C114.42 32.5193 115.335 29.8434 117.163 27.658C119.036 25.4727 121.935 24.38 125.86 24.38H128.268C132.282 24.38 135.337 25.4058 137.433 27.4573C139.574 29.5089 140.645 32.2072 140.645 35.5521V64.5862C140.645 67.6636 139.641 70.2504 137.634 72.3465C135.672 74.4427 132.751 75.4908 128.87 75.4908H126.797C122.827 75.4908 119.906 74.6434 118.033 72.9486C116.204 71.2092 115.29 68.9347 115.29 66.1249V59.5019H126.529V64.3855C126.529 65.5005 126.997 66.058 127.934 66.058C128.781 66.058 129.205 65.5005 129.205 64.3855V53.0796C126.618 56.0232 124.277 57.495 122.181 57.495ZM127.466 34.0803C126.351 34.0803 125.793 34.8162 125.793 36.288V46.5904C125.793 48.0622 126.351 48.7981 127.466 48.7981C128.625 48.7981 129.205 48.0622 129.205 46.5904V36.288C129.205 34.8162 128.625 34.0803 127.466 34.0803ZM169.003 38.3619V62.111C169.003 66.3925 167.91 69.6929 165.725 72.012C163.584 74.3312 160.618 75.4908 156.827 75.4908H154.687C150.806 75.4908 147.841 74.3312 145.789 72.012C143.737 69.6483 142.712 66.3479 142.712 62.111V38.3619C142.712 28.996 146.726 24.3131 154.753 24.3131H156.827C164.944 24.3131 169.003 28.996 169.003 38.3619ZM157.496 62.8469V36.957C157.496 35.2622 156.917 34.4148 155.757 34.4148C154.687 34.4148 154.151 35.2622 154.151 36.957V62.8469C154.151 64.4078 154.687 65.1883 155.757 65.1883C156.917 65.1883 157.496 64.4078 157.496 62.8469Z" fill="url(#paint0_linear_202_135)"/>
<path d="M112.181 104.865V83.3576H117.876L119.061 93.4174L120.304 83.3576H125.681V104.865H121.576V93.1283L119.755 104.865H118.049L116.228 93.1283V104.865H112.181ZM131.029 83.3576V94.1112L133.341 83.3576H137.793V104.865H133.341V94.169L131.029 104.865H126.577V83.3576H131.029ZM145.133 104.865V96.1925H143.486V104.865H138.716V83.3576H143.486V91.1626H145.133V83.3576H149.903V104.865H145.133ZM161.406 83.3576L157.706 102.494C157.398 104.075 156.607 104.865 155.336 104.865H151.491V100.933H152.85C153.062 100.933 153.196 100.895 153.254 100.818C153.331 100.721 153.389 100.548 153.428 100.297L153.457 99.9216C153.457 99.5554 153.408 99.1796 153.312 98.7942L150.19 83.3576H154.902L155.943 91.9431L156.868 83.3576H161.406ZM161.549 83.3576H171.667V87.8093H168.979V104.865H164.238V87.8093H161.549V83.3576Z" fill="url(#paint1_linear_202_135)"/>
<defs>
<filter id="filter0_dddddd_202_135" x="0.763771" y="30.6682" width="281.953" height="307.866" filterUnits="userSpaceOnUse" color-interpolation-filters="sRGB">
<feFlood flood-opacity="0" result="BackgroundImageFix"/>
<feColorMatrix in="SourceAlpha" type="matrix" values="0 0 0 0 0 0 0 0 0 0 0 0 0 0 0 0 0 0 127 0" result="hardAlpha"/>
<feOffset dy="2.99692"/>
<feGaussianBlur stdDeviation="1.19877"/>
<feColorMatrix type="matrix" values="0 0 0 0 0 0 0 0 0 0 0 0 0 0 0 0 0 0 0.0140573 0"/>
<feBlend mode="normal" in2="BackgroundImageFix" result="effect1_dropShadow_202_135"/>
<feColorMatrix in="SourceAlpha" type="matrix" values="0 0 0 0 0 0 0 0 0 0 0 0 0 0 0 0 0 0 127 0" result="hardAlpha"/>
<feOffset dy="7.20202"/>
<feGaussianBlur stdDeviation="2.88081"/>
<feColorMatrix type="matrix" values="0 0 0 0 0 0 0 0 0 0 0 0 0 0 0 0 0 0 0.0201946 0"/>
<feBlend mode="normal" in2="effect1_dropShadow_202_135" result="effect2_dropShadow_202_135"/>
<feColorMatrix in="SourceAlpha" type="matrix" values="0 0 0 0 0 0 0 0 0 0 0 0 0 0 0 0 0 0 127 0" result="hardAlpha"/>
<feOffset dy="13.5608"/>
<feGaussianBlur stdDeviation="5.42431"/>
<feColorMatrix type="matrix" values="0 0 0 0 0 0 0 0 0 0 0 0 0 0 0 0 0 0 0.025 0"/>
<feBlend mode="normal" in2="effect2_dropShadow_202_135" result="effect3_dropShadow_202_135"/>
<feColorMatrix in="SourceAlpha" type="matrix" values="0 0 0 0 0 0 0 0 0 0 0 0 0 0 0 0 0 0 127 0" result="hardAlpha"/>
<feOffset dy="24.1901"/>
<feGaussianBlur stdDeviation="9.67604"/>
<feColorMatrix type="matrix" values="0 0 0 0 0 0 0 0 0 0 0 0 0 0 0 0 0 0 0.0298054 0"/>
<feBlend mode="normal" in2="effect3_dropShadow_202_135" result="effect4_dropShadow_202_135"/>
<feColorMatrix in="SourceAlpha" type="matrix" values="0 0 0 0 0 0 0 0 0 0 0 0 0 0 0 0 0 0 127 0" result="hardAlpha"/>
<feOffset dy="45.2449"/>
<feGaussianBlur stdDeviation="18.098"/>
<feColorMatrix type="matrix" values="0 0 0 0 0 0 0 0 0 0 0 0 0 0 0 0 0 0 0.0359427 0"/>
<feBlend mode="normal" in2="effect4_dropShadow_202_135" result="effect5_dropShadow_202_135"/>
<feColorMatrix in="SourceAlpha" type="matrix" values="0 0 0 0 0 0 0 0 0 0 0 0 0 0 0 0 0 0 127 0" result="hardAlpha"/>
<feOffset dy="108.299"/>
<feGaussianBlur stdDeviation="43.3198"/>
<feColorMatrix type="matrix" values="0 0 0 0 0 0 0 0 0 0 0 0 0 0 0 0 0 0 0.05 0"/>
<feBlend mode="normal" in2="effect5_dropShadow_202_135" result="effect6_dropShadow_202_135"/>
<feBlend mode="normal" in="SourceGraphic" in2="effect6_dropShadow_202_135" result="shape"/>
</filter>
<filter id="filter1_d_202_135" x="24.3697" y="-50.6796" width="234.742" height="241.381" filterUnits="userSpaceOnUse" color-interpolation-filters="sRGB">
<feFlood flood-opacity="0" result="BackgroundImageFix"/>
<feColorMatrix in="SourceAlpha" type="matrix" values="0 0 0 0 0 0 0 0 0 0 0 0 0 0 0 0 0 0 127 0" result="hardAlpha"/>
<feOffset dy="4.33198"/>
<feGaussianBlur stdDeviation="24.3674"/>
<feComposite in2="hardAlpha" operator="out"/>
<feColorMatrix type="matrix" values="0 0 0 0 0 0 0 0 0 0 0 0 0 0 0 0 0 0 0.05 0"/>
<feBlend mode="normal" in2="BackgroundImageFix" result="effect1_dropShadow_202_135"/>
<feBlend mode="normal" in="SourceGraphic" in2="effect1_dropShadow_202_135" result="shape"/>
</filter>
<linearGradient id="paint0_linear_202_135" x1="209.392" y1="52.0104" x2="73.8523" y2="52.0104" gradientUnits="userSpaceOnUse">
<stop stop-color="#D80023"/>
<stop offset="0.370128" stop-color="#FC2144"/>
<stop offset="0.605261" stop-color="#D80023"/>
<stop offset="1" stop-color="#FF0000"/>
</linearGradient>
<linearGradient id="paint1_linear_202_135" x1="194.476" y1="95.0989" x2="88.8217" y2="95.0989" gradientUnits="userSpaceOnUse">
<stop stop-color="#D80023"/>
<stop offset="0.370128" stop-color="#FC2144"/>
<stop offset="0.605261" stop-color="#D80023"/>
<stop offset="1" stop-color="#FF0000"/>
</linearGradient>
</defs>
</svg>
