<svg width="1045" height="91" viewBox="0 0 1045 91" fill="none" xmlns="http://www.w3.org/2000/svg">
<path d="M22.3795 80.6401L15.7195 53.9101V80.6401H0.869485V13.6801H15.7195V37.4401L22.6495 13.6801H37.4095L28.3195 43.4701L37.9495 80.6401H22.3795ZM38.924 13.6801H66.734V27.5401H53.594V38.9701H64.124V53.1901H53.594V66.5101H67.274V80.6401H38.924V13.6801ZM83.0142 13.6801V47.1601L90.2142 13.6801H104.074V80.6401H90.2142V47.3401L83.0142 80.6401H69.1542V13.6801H83.0142ZM87.0642 11.8801H86.6142C83.2542 11.8801 80.5842 10.9501 78.6042 9.09014C76.6842 7.23013 75.7242 4.77013 75.7242 1.71013V0.990132H84.6342V1.53013C84.6342 3.15013 85.3542 3.96013 86.7942 3.96013H86.8842C88.3242 3.96013 89.0442 3.15013 89.0442 1.53013V0.990132H97.8642V1.71013C97.8642 4.71013 96.8442 7.17013 94.8042 9.09014C92.8242 10.9501 90.2442 11.8801 87.0642 11.8801ZM127.197 64.8001V51.3901H141.867V65.2501C141.867 69.9301 140.577 73.8601 137.997 77.0401C135.477 80.1601 131.487 81.7201 126.027 81.7201H123.417C112.437 81.7201 106.947 75.8101 106.947 63.9901V29.9701C106.947 24.7501 108.237 20.5801 110.817 17.4601C113.457 14.3401 117.627 12.7801 123.327 12.7801H126.027C136.587 12.7801 141.867 18.0001 141.867 28.4401V39.4201H127.197V29.0701C127.197 26.8501 126.387 25.7401 124.767 25.7401C123.867 25.7401 123.237 25.9801 122.877 26.4601C122.517 26.9401 122.337 27.8101 122.337 29.0701V64.8001C122.337 67.1401 123.177 68.3101 124.857 68.3101C126.417 68.3101 127.197 67.1401 127.197 64.8001ZM158.073 13.6801V47.1601L165.273 13.6801H179.133V80.6401H165.273V47.3401L158.073 80.6401H144.213V13.6801H158.073ZM224.699 13.6801L213.179 73.2601C212.219 78.1801 209.759 80.6401 205.799 80.6401H193.829V68.4001H198.059C198.719 68.4001 199.139 68.2801 199.319 68.0401C199.559 67.7401 199.739 67.2001 199.859 66.4201L199.949 65.2501C199.949 64.1101 199.799 62.9401 199.499 61.7401L189.779 13.6801H204.449L207.689 40.4101L210.569 13.6801H224.699ZM259.892 80.6401H245.042V53.6401C243.422 54.2401 241.322 54.5401 238.742 54.5401H238.382C229.562 54.5401 225.152 50.1601 225.152 41.4001V13.6801H239.912V37.5301C239.912 39.0301 240.122 40.0501 240.542 40.5901C240.962 41.0701 241.712 41.3101 242.792 41.3101H242.972C243.932 41.3101 244.622 41.1901 245.042 40.9501V13.6801H259.892V80.6401ZM282.757 80.6401V53.6401H277.627V80.6401H262.777V13.6801H277.627V37.9801H282.757V13.6801H297.607V80.6401H282.757ZM315.6 13.6801V80.6401H300.75V13.6801H315.6ZM318.504 80.6401V13.6801H341.004C344.964 13.6801 347.904 14.6701 349.824 16.6501C351.804 18.6301 352.794 21.8401 352.794 26.2801V33.6601C352.794 36.4801 352.104 38.7601 350.724 40.5001C349.404 42.2401 348.024 43.3501 346.584 43.8301C351.564 45.3901 354.054 49.2001 354.054 55.2601V65.1601C354.054 75.4801 350.004 80.6401 341.904 80.6401H318.504ZM335.784 51.1201H333.354V68.7601H336.054C336.954 68.7601 337.584 68.5201 337.944 68.0401C338.364 67.5001 338.574 66.5401 338.574 65.1601V54.5401C338.574 53.2801 338.364 52.4101 337.944 51.9301C337.584 51.3901 336.864 51.1201 335.784 51.1201ZM335.514 25.1101H333.354V39.5101H335.424C337.224 39.5101 338.124 38.4001 338.124 36.1801V28.2601C338.124 27.1801 337.944 26.4001 337.584 25.9201C337.224 25.3801 336.534 25.1101 335.514 25.1101Z" fill="url(#paint0_linear_313_1504)"/>
<path d="M365.961 80.6401V13.6801H400.251V80.6401H385.401V27.5401H380.811V80.6401H365.961ZM418.169 13.6801V80.6401H403.319V13.6801H418.169ZM441.142 64.8001V51.3901H455.812V65.2501C455.812 69.9301 454.522 73.8601 451.942 77.0401C449.422 80.1601 445.432 81.7201 439.972 81.7201H437.362C426.382 81.7201 420.892 75.8101 420.892 63.9901V29.9701C420.892 24.7501 422.182 20.5801 424.762 17.4601C427.402 14.3401 431.572 12.7801 437.272 12.7801H439.972C450.532 12.7801 455.812 18.0001 455.812 28.4401V39.4201H441.142V29.0701C441.142 26.8501 440.332 25.7401 438.712 25.7401C437.812 25.7401 437.182 25.9801 436.822 26.4601C436.462 26.9401 436.282 27.8101 436.282 29.0701V64.8001C436.282 67.1401 437.122 68.3101 438.802 68.3101C440.362 68.3101 441.142 67.1401 441.142 64.8001ZM461.038 61.8301C461.458 52.8901 461.668 36.8401 461.668 13.6801H494.068V80.6401H479.218V27.5401H475.168C475.168 45.5401 474.928 58.4701 474.448 66.3301C474.088 71.6701 472.858 75.3901 470.758 77.4901C468.718 79.5901 465.118 80.6401 459.958 80.6401H457.168V66.3301H457.888C459.088 66.3301 459.898 66.0001 460.318 65.3401C460.738 64.6201 460.978 63.4501 461.038 61.8301ZM516.896 56.4301H515.906L510.596 80.6401H495.296L502.226 52.2001C499.166 50.1001 497.636 46.4701 497.636 41.3101V27.1801C497.636 22.6201 498.626 19.2301 500.606 17.0101C502.646 14.7901 505.856 13.6801 510.236 13.6801H531.656V80.6401H516.896V56.4301ZM516.896 44.1001V25.3801H515.096C514.076 25.3801 513.386 25.6501 513.026 26.1901C512.666 26.7301 512.486 27.5701 512.486 28.7101V40.8601C512.486 42.0001 512.666 42.8401 513.026 43.3801C513.386 43.8601 514.076 44.1001 515.096 44.1001H516.896ZM544.467 80.6401V13.6801H578.757V80.6401H563.907V27.5401H559.317V80.6401H544.467ZM581.824 13.6801H609.634V27.5401H596.494V38.9701H607.024V53.1901H596.494V66.5101H610.174V80.6401H581.824V13.6801ZM634.105 54.8101H626.995V80.6401H612.235V13.6801H633.655C638.035 13.6801 641.215 14.7901 643.195 17.0101C645.235 19.2301 646.255 22.6201 646.255 27.1801V41.0401C646.255 45.4201 645.175 48.8101 643.015 51.2101C640.915 53.6101 637.945 54.8101 634.105 54.8101ZM626.995 25.3801V42.4801H628.795C629.815 42.4801 630.505 42.2401 630.865 41.7601C631.225 41.2201 631.405 40.3801 631.405 39.2401V28.7101C631.405 27.5701 631.225 26.7301 630.865 26.1901C630.505 25.6501 629.815 25.3801 628.795 25.3801H626.995ZM648.621 13.6801H676.431V27.5401H663.291V38.9701H673.821V53.1901H663.291V66.5101H676.971V80.6401H648.621V13.6801ZM678.851 80.6401V13.6801H706.301V27.5401H693.521V80.6401H678.851ZM708.274 61.8301C708.694 52.8901 708.904 36.8401 708.904 13.6801H741.304V80.6401H726.454V27.5401H722.404C722.404 45.5401 722.164 58.4701 721.684 66.3301C721.324 71.6701 720.094 75.3901 717.994 77.4901C715.954 79.5901 712.354 80.6401 707.194 80.6401H704.404V66.3301H705.124C706.324 66.3301 707.134 66.0001 707.554 65.3401C707.974 64.6201 708.214 63.4501 708.274 61.8301ZM764.132 56.4301H763.142L757.832 80.6401H742.532L749.462 52.2001C746.402 50.1001 744.872 46.4701 744.872 41.3101V27.1801C744.872 22.6201 745.862 19.2301 747.842 17.0101C749.882 14.7901 753.092 13.6801 757.472 13.6801H778.892V80.6401H764.132V56.4301ZM764.132 44.1001V25.3801H762.332C761.312 25.3801 760.622 25.6501 760.262 26.1901C759.902 26.7301 759.722 27.5701 759.722 28.7101V40.8601C759.722 42.0001 759.902 42.8401 760.262 43.3801C760.622 43.8601 761.312 44.1001 762.332 44.1001H764.132ZM808.049 90.0901V80.6401H793.109V90.0901H780.419V66.5101H782.669C783.209 65.5501 783.629 62.5501 783.929 57.5101C784.169 52.4701 784.409 37.8601 784.649 13.6801H817.319V66.5101H820.739V90.0901H808.049ZM797.159 56.7901C796.859 61.0501 796.409 64.4401 795.809 66.9601H803.009V27.5401H797.789C797.429 46.0201 797.219 55.7701 797.159 56.7901ZM853.996 13.6801L842.476 73.2601C841.516 78.1801 839.056 80.6401 835.096 80.6401H823.126V68.4001H827.356C828.016 68.4001 828.436 68.2801 828.616 68.0401C828.856 67.7401 829.036 67.2001 829.156 66.4201L829.246 65.2501C829.246 64.1101 829.096 62.9401 828.796 61.7401L819.076 13.6801H833.746L836.986 40.4101L839.866 13.6801H853.996ZM897.502 13.6801L885.982 73.2601C885.022 78.1801 882.562 80.6401 878.602 80.6401H866.632V68.4001H870.862C871.522 68.4001 871.942 68.2801 872.122 68.0401C872.362 67.7401 872.542 67.2001 872.662 66.4201L872.752 65.2501C872.752 64.1101 872.602 62.9401 872.302 61.7401L862.582 13.6801H877.252L880.492 40.4101L883.372 13.6801H897.502ZM920.364 54.8101H913.254V80.6401H898.494V13.6801H919.914C924.294 13.6801 927.474 14.7901 929.454 17.0101C931.494 19.2301 932.514 22.6201 932.514 27.1801V41.0401C932.514 45.4201 931.434 48.8101 929.274 51.2101C927.174 53.6101 924.204 54.8101 920.364 54.8101ZM913.254 25.3801V42.4801H915.054C916.074 42.4801 916.764 42.2401 917.124 41.7601C917.484 41.2201 917.664 40.3801 917.664 39.2401V28.7101C917.664 27.5701 917.484 26.7301 917.124 26.1901C916.764 25.6501 916.074 25.3801 915.054 25.3801H913.254ZM970.881 31.6801V63.4501C970.881 69.2101 969.411 73.6801 966.471 76.8601C963.531 80.0401 959.481 81.6301 954.321 81.6301H951.441C946.041 81.6301 941.901 80.0701 939.021 76.9501C936.141 73.7701 934.701 69.2701 934.701 63.4501V31.6801C934.701 19.0801 940.251 12.7801 951.351 12.7801H954.231C965.331 12.7801 970.881 19.0801 970.881 31.6801ZM955.491 64.4401V30.1501C955.491 27.6301 954.591 26.3701 952.791 26.3701C950.991 26.3701 950.091 27.6301 950.091 30.1501V64.4401C950.091 66.6601 951.021 67.7701 952.881 67.7701C954.621 67.7701 955.491 66.6601 955.491 64.4401ZM995.065 80.6401L988.405 53.9101V80.6401H973.555V13.6801H988.405V37.4401L995.335 13.6801H1010.09L1001 43.4701L1010.63 80.6401H995.065ZM1044.28 13.6801L1032.76 73.2601C1031.8 78.1801 1029.34 80.6401 1025.38 80.6401H1013.41V68.4001H1017.64C1018.3 68.4001 1018.72 68.2801 1018.9 68.0401C1019.14 67.7401 1019.32 67.2001 1019.44 66.4201L1019.53 65.2501C1019.53 64.1101 1019.38 62.9401 1019.08 61.7401L1009.36 13.6801H1024.03L1027.27 40.4101L1030.15 13.6801H1044.28Z" fill="url(#paint1_linear_313_1504)"/>
<defs>
<linearGradient id="paint0_linear_313_1504" x1="1409.27" y1="59.4562" x2="-369.532" y2="59.4558" gradientUnits="userSpaceOnUse">
<stop stop-color="#F5CC7D"/>
<stop offset="0.370128" stop-color="#F5CC7D"/>
<stop offset="0.605261" stop-color="#F5CC7D"/>
<stop offset="1" stop-color="#FFE38C"/>
</linearGradient>
<linearGradient id="paint1_linear_313_1504" x1="1409.27" y1="59.4562" x2="-369.532" y2="59.4558" gradientUnits="userSpaceOnUse">
<stop stop-color="white" stop-opacity="0"/>
<stop offset="0.370128" stop-color="white"/>
<stop offset="0.605261" stop-color="white"/>
<stop offset="1" stop-color="white" stop-opacity="0"/>
</linearGradient>
</defs>
</svg>
