<svg width="739" height="250" viewBox="0 0 739 250" fill="none" xmlns="http://www.w3.org/2000/svg">
<path d="M32.7862 99.7549L23.0373 60.6276V99.7549H1.29996V1.73916H23.0373V36.5189L33.1814 1.73916H54.787L41.4811 45.3456L55.5775 99.7549H32.7862ZM106.742 28.0875V74.5922C106.742 83.0237 104.59 89.5669 100.286 94.2217C95.9827 98.8766 90.0543 101.204 82.5011 101.204H78.2854C70.3809 101.204 64.3208 98.9205 60.1051 94.3535C55.8893 89.6986 53.7815 83.1115 53.7815 74.5922V28.0875C53.7815 9.64365 61.9055 0.421744 78.1537 0.421744H82.3694C98.6175 0.421744 106.742 9.64365 106.742 28.0875ZM84.2138 76.0414V25.8479C84.2138 22.1591 82.8964 20.3147 80.2615 20.3147C77.6267 20.3147 76.3093 22.1591 76.3093 25.8479V76.0414C76.3093 79.291 77.6706 80.9158 80.3933 80.9158C82.9403 80.9158 84.2138 79.291 84.2138 76.0414ZM110.524 99.7549V1.73916H136.477L141.879 47.5852L147.543 1.73916H172.047V99.7549H153.34V46.2678L145.04 99.7549H137.268L128.968 46.2678V99.7549H110.524ZM224.217 1.73916L207.354 88.9521C205.949 96.1539 202.348 99.7549 196.551 99.7549H179.03V81.838H185.221C186.188 81.838 186.802 81.6624 187.066 81.3111C187.417 80.8719 187.681 80.0815 187.856 78.9397L187.988 77.2271C187.988 75.5583 187.768 73.8457 187.329 72.0892L173.101 1.73916H194.575L199.318 40.8664L203.534 1.73916H224.217ZM0.90474 235.755V137.739H51.0983V235.755H29.3609V158.027H22.6421V235.755H0.90474ZM77.3262 137.739V235.755H55.5888V137.739H77.3262ZM119.65 249.588V235.755H97.7811V249.588H79.2055V215.071H82.4991C83.2895 213.666 83.9043 209.275 84.3435 201.897C84.6948 194.52 85.0461 173.134 85.3974 137.739H133.22V215.071H138.226V249.588H119.65ZM103.709 200.843C103.27 207.079 102.612 212.041 101.733 215.73H112.273V158.027H104.632C104.105 185.078 103.797 199.35 103.709 200.843ZM150.617 183.322L140.077 137.739H162.078L166.689 166.459L171.168 137.739H191.852L181.839 183.322L193.828 235.755H171.959L166.162 202.688L160.102 235.755H138.892L150.617 183.322ZM245.559 164.087V210.592C245.559 219.024 243.407 225.567 239.104 230.222C234.8 234.877 228.872 237.204 221.319 237.204H217.103C209.198 237.204 203.138 234.921 198.923 230.353C194.707 225.699 192.599 219.112 192.599 210.592V164.087C192.599 145.644 200.723 136.422 216.971 136.422H221.187C237.435 136.422 245.559 145.644 245.559 164.087ZM223.031 212.041V161.848C223.031 158.159 221.714 156.315 219.079 156.315C216.444 156.315 215.127 158.159 215.127 161.848V212.041C215.127 215.291 216.488 216.916 219.211 216.916C221.758 216.916 223.031 215.291 223.031 212.041ZM287.029 249.588V235.755H265.16V249.588H246.584V215.071H249.878C250.668 213.666 251.283 209.275 251.722 201.897C252.073 194.52 252.425 173.134 252.776 137.739H300.598V215.071H305.604V249.588H287.029ZM271.088 200.843C270.649 207.079 269.99 212.041 269.112 215.73H279.651V158.027H272.01C271.483 185.078 271.176 199.35 271.088 200.843ZM328.676 137.739V186.747L339.215 137.739H359.503V235.755H339.215V187.011L328.676 235.755H308.387V137.739H328.676ZM362.786 137.739H408.896V158.027H396.644V235.755H375.038V158.027H362.786V137.739ZM433.302 172.519H443.71C449.331 172.519 453.678 174.275 456.752 177.789C459.914 181.302 461.495 186.308 461.495 192.807V215.994C461.495 222.669 460.002 227.631 457.016 230.88C454.117 234.13 449.462 235.755 443.051 235.755H411.697V137.739H433.302V172.519ZM433.302 218.628H435.937C437.43 218.628 438.44 218.233 438.967 217.443C439.494 216.652 439.758 215.423 439.758 213.754V195.31C439.758 193.641 439.494 192.456 438.967 191.753C438.44 190.963 437.43 190.568 435.937 190.568H433.302V218.628ZM527.454 137.739L510.591 224.952C509.186 232.154 505.585 235.755 499.788 235.755H482.267V217.838H488.459C489.425 217.838 490.04 217.662 490.303 217.311C490.654 216.872 490.918 216.081 491.093 214.94L491.225 213.227C491.225 211.558 491.006 209.846 490.567 208.089L476.338 137.739H497.812L502.555 176.866L506.771 137.739H527.454ZM560.92 197.945H550.512V235.755H528.906V137.739H560.261C566.672 137.739 571.327 139.364 574.225 142.614C577.212 145.863 578.705 150.825 578.705 157.5V177.789C578.705 184.2 577.124 189.162 573.962 192.675C570.888 196.188 566.541 197.945 560.92 197.945ZM550.512 154.866V179.896H553.147C554.64 179.896 555.65 179.545 556.177 178.843C556.704 178.052 556.967 176.822 556.967 175.154V159.74C556.967 158.071 556.704 156.842 556.177 156.051C555.65 155.261 554.64 154.866 553.147 154.866H550.512ZM634.866 164.087V210.592C634.866 219.024 632.714 225.567 628.41 230.222C624.107 234.877 618.178 237.204 610.625 237.204H606.41C598.505 237.204 592.445 234.921 588.229 230.353C584.013 225.699 581.906 219.112 581.906 210.592V164.087C581.906 145.644 590.03 136.422 606.278 136.422H610.494C626.742 136.422 634.866 145.644 634.866 164.087ZM612.338 212.041V161.848C612.338 158.159 611.02 156.315 608.386 156.315C605.751 156.315 604.433 158.159 604.433 161.848V212.041C604.433 215.291 605.795 216.916 608.517 216.916C611.064 216.916 612.338 215.291 612.338 212.041ZM670.266 235.755L660.517 196.628V235.755H638.78V137.739H660.517V172.519L670.661 137.739H692.267L678.961 181.346L693.057 235.755H670.266ZM720.486 211.251H704.282V197.813C704.282 194.652 704.546 192.148 705.073 190.304C705.687 188.46 706.873 186.132 708.63 183.322L714.558 173.968C716.139 171.509 716.929 168.391 716.929 164.614V157.896C716.929 155.173 715.963 153.812 714.031 153.812C712.889 153.812 712.099 154.163 711.66 154.866C711.308 155.48 711.133 156.49 711.133 157.896V172.651H691.635V157.369C691.635 154.47 691.899 151.879 692.425 149.596C693.04 147.312 694.006 145.161 695.324 143.141C696.729 141.033 698.837 139.408 701.647 138.266C704.546 137.124 708.059 136.553 712.187 136.553H716.798C731.026 136.553 738.14 143.272 738.14 156.71V163.429C738.14 167.644 737.745 171.114 736.954 173.836C736.164 176.559 734.583 179.413 732.211 182.4L723.78 193.202C722.375 194.959 721.453 196.452 721.013 197.682C720.662 198.823 720.486 200.624 720.486 203.083V211.251ZM721.804 214.544V235.755H703.097V214.544H721.804Z" fill="url(#paint0_linear_313_1556)"/>
<path d="M261.816 1.73916V99.7549H240.078V1.73916H261.816ZM304.14 113.588V99.7549H282.271V113.588H263.695V79.0715H266.989C267.779 77.6662 268.394 73.2748 268.833 65.8973C269.184 58.5198 269.536 37.1337 269.887 1.73916H317.709V79.0715H322.715V113.588H304.14ZM288.199 64.8434C287.76 71.0791 287.101 76.0414 286.223 79.7302H296.762V22.0274H289.121C288.594 49.0783 288.287 63.3503 288.199 64.8434ZM325.762 1.73916H366.47V22.0274H347.236V38.7585H362.65V59.5737H347.236V79.0715H367.261V99.7549H325.762V1.73916ZM400.423 99.7549L398.842 85.3951H388.83L387.381 99.7549H368.542L381.057 1.73916H407.801L421.502 99.7549H400.423ZM393.836 36.2554L390.806 66.029H396.866L393.836 36.2554ZM426.848 72.2209C427.463 59.1346 427.77 35.6407 427.77 1.73916H475.197V99.7549H453.46V22.0274H447.531C447.531 48.3757 447.18 67.3025 446.477 78.808C445.95 86.6246 444.15 92.07 441.076 95.1439C438.09 98.2179 432.82 99.7549 425.267 99.7549H421.183V78.808H422.237C423.993 78.808 425.179 78.3249 425.794 77.3588C426.409 76.3049 426.76 74.5922 426.848 72.2209ZM501.103 36.5189H511.51C517.131 36.5189 521.479 38.2755 524.553 41.7886C527.715 45.3017 529.295 50.3079 529.295 56.8071V79.9936C529.295 86.6686 527.802 91.6308 524.816 94.8804C521.918 98.1301 517.263 99.7549 510.852 99.7549H479.497V1.73916H501.103V36.5189ZM501.103 82.6285H503.738C505.231 82.6285 506.241 82.2333 506.768 81.4428C507.295 80.6524 507.558 79.4228 507.558 77.754V59.3102C507.558 57.6415 507.295 56.4558 506.768 55.7532C506.241 54.9627 505.231 54.5675 503.738 54.5675H501.103V82.6285ZM562.006 99.7549V60.2324H554.497V99.7549H532.76V1.73916H554.497V37.3094H562.006V1.73916H583.744V99.7549H562.006ZM641.041 28.0875V74.5922C641.041 83.0237 638.889 89.5669 634.586 94.2217C630.282 98.8766 624.354 101.204 616.801 101.204H612.585C604.68 101.204 598.62 98.9205 594.405 94.3535C590.189 89.6986 588.081 83.1115 588.081 74.5922V28.0875C588.081 9.64365 596.205 0.421744 612.453 0.421744H616.669C632.917 0.421744 641.041 9.64365 641.041 28.0875ZM618.513 76.0414V25.8479C618.513 22.1591 617.196 20.3147 614.561 20.3147C611.926 20.3147 610.609 22.1591 610.609 25.8479V76.0414C610.609 79.291 611.97 80.9158 614.693 80.9158C617.24 80.9158 618.513 79.291 618.513 76.0414Z" fill="url(#paint1_linear_313_1556)"/>
<defs>
<linearGradient id="paint0_linear_313_1556" x1="65.9742" y1="111.755" x2="794.02" y2="111.755" gradientUnits="userSpaceOnUse">
<stop stop-color="#0E0E0E"/>
<stop offset="0.536458" stop-color="#595959"/>
<stop offset="1" stop-color="#0E0E0E"/>
</linearGradient>
<linearGradient id="paint1_linear_313_1556" x1="1002.96" y1="115.073" x2="-212.238" y2="115.073" gradientUnits="userSpaceOnUse">
<stop stop-color="#D80023"/>
<stop offset="0.370128" stop-color="#FC2144"/>
<stop offset="0.605261" stop-color="#D80023"/>
<stop offset="1" stop-color="#FF0000"/>
</linearGradient>
</defs>
</svg>
