<svg width="283" height="341" viewBox="0 0 283 341" fill="none" xmlns="http://www.w3.org/2000/svg">
<g filter="url(#filter0_dddddd_153_2)">
<path d="M87.0264 34.1549C87.0264 33.0577 87.9158 32.1682 89.013 32.1682H193.713C194.811 32.1682 195.7 33.0577 195.7 34.1549V128.73C195.7 129.723 194.967 130.563 193.984 130.698L89.2833 145.077C88.0899 145.241 87.0264 144.313 87.0264 143.109V34.1549Z" fill="#F5F5F5"/>
</g>
<g filter="url(#filter1_d_153_2)">
<path d="M72.728 -2.79023C72.728 -3.88742 73.6175 -4.77686 74.7147 -4.77686H208.013C209.111 -4.77686 210 -3.88741 210 -2.79022V118.689C210 119.681 209.268 120.521 208.286 120.657L74.9872 139.115C73.793 139.281 72.728 138.353 72.728 137.147V-2.79023Z" fill="#F9F9F9"/>
</g>
<path d="M59.416 123.334L62.74 123.334L62.74 125.134L61 125.134L61 131.062L62.74 131.062L62.74 132.862L59.416 132.85L59.416 132.514C59.4 132.01 59.032 131.654 58.312 131.446C57.592 131.238 56.564 131.11 55.228 131.062L52.6 130.966L52.6 124.51L59.416 124.51L59.416 123.334ZM55.408 129.346C56.408 129.386 57.248 129.47 57.928 129.598C58.6 129.726 59.096 129.922 59.416 130.186L59.416 126.43L54.184 126.43L54.184 129.31L55.408 129.346ZM52.6 113.938L61 113.938L61 115.858L54.184 115.858L54.184 118.738L55.936 118.798C57.128 118.838 58.096 118.934 58.84 119.086C59.576 119.238 60.144 119.494 60.544 119.854C60.936 120.206 61.132 120.702 61.132 121.342C61.132 121.606 61.088 121.926 61 122.302L59.356 122.182C59.388 122.078 59.404 121.962 59.404 121.834C59.404 121.37 59.132 121.046 58.588 120.862C58.036 120.678 57.176 120.562 56.008 120.514L52.6 120.394L52.6 113.938ZM52.6 111.24L52.6 109.308L58.072 109.308L52.6 105.3L52.6 103.476L61 103.476L61 105.396L55.54 105.396L61 109.404L61 111.24L52.6 111.24ZM54.184 94.3643L54.184 97.0523L61 97.0523L61 98.9723L54.184 98.9723L54.184 101.648L52.6 101.648L52.6 94.3643L54.184 94.3643ZM59.44 86.0397L61 86.0397L61 92.5437L52.6 92.5437L52.6 86.1957L54.16 86.1957L54.16 90.6117L55.984 90.6117L55.984 86.7117L57.496 86.7117L57.496 90.6117L59.44 90.6117L59.44 86.0397ZM52.6 76.3815L61 76.3815L61 78.3015L54.184 78.3015L54.184 81.1815L55.936 81.2415C57.128 81.2815 58.096 81.3775 58.84 81.5295C59.576 81.6815 60.144 81.9375 60.544 82.2975C60.936 82.6495 61.132 83.1455 61.132 83.7855C61.132 84.0495 61.088 84.3695 61 84.7455L59.356 84.6255C59.388 84.5215 59.404 84.4055 59.404 84.2775C59.404 83.8135 59.132 83.4895 58.588 83.3055C58.036 83.1215 57.176 83.0055 56.008 82.9575L52.6 82.8375L52.6 76.3815ZM55.36 69.6155C55.36 68.5915 55.588 67.8075 56.044 67.2635C56.5 66.7115 57.176 66.4355 58.072 66.4355C59.024 66.4355 59.752 66.7395 60.256 67.3475C60.752 67.9475 61 68.7955 61 69.8915L61 73.6835L52.6 73.6836L52.6 71.7516L55.36 71.7516L55.36 69.6155ZM59.56 69.9995C59.56 69.4955 59.436 69.1035 59.188 68.8235C58.94 68.5356 58.58 68.3916 58.108 68.3916C57.236 68.3916 56.8 68.9276 56.8 69.9995L56.8 71.7516L59.56 71.7515L59.56 69.9995ZM52.6 56.7311L61 56.7311L61 58.6751L57.556 58.6751L57.556 62.4911L61 62.4911L61 64.4351L52.6 64.4351L52.6 62.4911L55.912 62.4911L55.912 58.6751L52.6 58.6751L52.6 56.7311ZM61.144 50.0185C61.144 50.8905 60.956 51.6785 60.58 52.3825C60.204 53.0785 59.688 53.6265 59.032 54.0265C58.368 54.4185 57.624 54.6145 56.8 54.6145C55.976 54.6145 55.236 54.4185 54.58 54.0265C53.916 53.6265 53.396 53.0785 53.02 52.3825C52.644 51.6785 52.456 50.8905 52.456 50.0185C52.456 49.1465 52.644 48.3625 53.02 47.6665C53.396 46.9705 53.916 46.4225 54.58 46.0225C55.236 45.6225 55.976 45.4225 56.8 45.4225C57.624 45.4225 58.368 45.6225 59.032 46.0225C59.688 46.4225 60.204 46.9705 60.58 47.6665C60.956 48.3625 61.144 49.1465 61.144 50.0185ZM59.488 50.0185C59.488 49.5225 59.376 49.0745 59.152 48.6745C58.92 48.2745 58.6 47.9625 58.192 47.7385C57.784 47.5065 57.32 47.3905 56.8 47.3905C56.28 47.3905 55.816 47.5065 55.408 47.7385C55 47.9625 54.684 48.2745 54.46 48.6745C54.228 49.0745 54.112 49.5225 54.112 50.0185C54.112 50.5145 54.228 50.9625 54.46 51.3625C54.684 51.7625 55 52.0785 55.408 52.3105C55.816 52.5345 56.28 52.6465 56.8 52.6465C57.32 52.6465 57.784 52.5345 58.192 52.3105C58.6 52.0785 58.92 51.7625 59.152 51.3625C59.376 50.9625 59.488 50.5145 59.488 50.0185ZM61.144 39.353C61.144 40.209 60.96 40.985 60.592 41.681C60.216 42.369 59.7 42.913 59.044 43.313C58.38 43.705 57.632 43.901 56.8 43.901C55.968 43.901 55.224 43.705 54.568 43.313C53.904 42.913 53.388 42.369 53.02 41.681C52.644 40.985 52.456 40.205 52.456 39.341C52.456 38.613 52.584 37.957 52.84 37.373C53.096 36.781 53.464 36.285 53.944 35.885L55.096 37.133C54.44 37.701 54.112 38.405 54.112 39.245C54.112 39.765 54.228 40.229 54.46 40.637C54.684 41.045 55 41.365 55.408 41.597C55.816 41.821 56.28 41.933 56.8 41.933C57.32 41.933 57.784 41.821 58.192 41.597C58.6 41.365 58.92 41.045 59.152 40.637C59.376 40.229 59.488 39.765 59.488 39.245C59.488 38.405 59.156 37.701 58.492 37.133L59.644 35.885C60.132 36.285 60.504 36.781 60.76 37.373C61.016 37.965 61.144 38.625 61.144 39.353ZM54.184 27.68L54.184 30.368L61 30.368L61 32.288L54.184 32.288L54.184 34.964L52.6 34.964L52.6 27.68L54.184 27.68ZM55.36 21.7913C55.36 20.7673 55.588 19.9833 56.044 19.4393C56.5 18.8873 57.176 18.6113 58.072 18.6113C59.024 18.6113 59.752 18.9153 60.256 19.5233C60.752 20.1233 61 20.9713 61 22.0673L61 25.8593L52.6 25.8593L52.6 23.9273L55.36 23.9273L55.36 21.7913ZM59.56 22.1753C59.56 21.6713 59.436 21.2793 59.188 20.9993C58.94 20.7113 58.58 20.5673 58.108 20.5673C57.236 20.5673 56.8 21.1033 56.8 22.1753L56.8 23.9273L59.56 23.9273L59.56 22.1753Z" fill="#474747"/>
<path d="M121.805 58.995H121.269C118.995 58.995 117.211 58.1922 115.917 56.5866C114.669 54.9364 114.044 52.9071 114.044 50.4988V37.1859C114.044 34.0193 114.959 31.3434 116.787 29.158C118.66 26.9727 121.559 25.88 125.484 25.88H127.892C131.906 25.88 134.961 26.9058 137.057 28.9573C139.198 31.0089 140.269 33.7072 140.269 37.0521V66.0862C140.269 69.1636 139.265 71.7504 137.258 73.8465C135.296 75.9427 132.375 76.9908 128.494 76.9908H126.421C122.451 76.9908 119.53 76.1434 117.657 74.4486C115.828 72.7092 114.914 70.4347 114.914 67.6249V61.0019H126.153V65.8855C126.153 67.0005 126.621 67.558 127.558 67.558C128.405 67.558 128.829 67.0005 128.829 65.8855V54.5796C126.242 57.5232 123.901 58.995 121.805 58.995ZM127.09 35.5803C125.975 35.5803 125.417 36.3162 125.417 37.788V48.0904C125.417 49.5622 125.975 50.2981 127.09 50.2981C128.249 50.2981 128.829 49.5622 128.829 48.0904V37.788C128.829 36.3162 128.249 35.5803 127.09 35.5803ZM168.627 39.8619V63.611C168.627 67.8925 167.534 71.1929 165.349 73.512C163.208 75.8312 160.242 76.9908 156.451 76.9908H154.311C150.43 76.9908 147.465 75.8312 145.413 73.512C143.361 71.1483 142.336 67.8479 142.336 63.611V39.8619C142.336 30.496 146.35 25.8131 154.378 25.8131H156.451C164.568 25.8131 168.627 30.496 168.627 39.8619ZM157.12 64.3469V38.457C157.12 36.7622 156.541 35.9148 155.381 35.9148C154.311 35.9148 153.775 36.7622 153.775 38.457V64.3469C153.775 65.9078 154.311 66.6883 155.381 66.6883C156.541 66.6883 157.12 65.9078 157.12 64.3469Z" fill="url(#paint0_linear_153_2)"/>
<path d="M111.805 106.365V84.8576H117.5L118.685 94.9174L119.928 84.8576H125.305V106.365H121.2V94.6283L119.379 106.365H117.673L115.852 94.6283V106.365H111.805ZM130.652 84.8576V95.6112L132.965 84.8576H137.417V106.365H132.965V95.669L130.652 106.365H126.201V84.8576H130.652ZM144.757 106.365V97.6925H143.109V106.365H138.34V84.8576H143.109V92.6626H144.757V84.8576H149.527V106.365H144.757ZM161.03 84.8576L157.33 103.994C157.021 105.575 156.231 106.365 154.959 106.365H151.114V102.433H152.473C152.685 102.433 152.82 102.395 152.878 102.318C152.955 102.221 153.013 102.048 153.051 101.797L153.08 101.422C153.08 101.055 153.032 100.68 152.936 100.294L149.814 84.8576H154.525L155.566 93.4431L156.491 84.8576H161.03ZM161.173 84.8576H171.29V89.3093H168.602V106.365H163.861V89.3093H161.173V84.8576Z" fill="url(#paint1_linear_153_2)"/>
<defs>
<filter id="filter0_dddddd_153_2" x="0.386818" y="32.1682" width="281.953" height="307.866" filterUnits="userSpaceOnUse" color-interpolation-filters="sRGB">
<feFlood flood-opacity="0" result="BackgroundImageFix"/>
<feColorMatrix in="SourceAlpha" type="matrix" values="0 0 0 0 0 0 0 0 0 0 0 0 0 0 0 0 0 0 127 0" result="hardAlpha"/>
<feOffset dy="2.99692"/>
<feGaussianBlur stdDeviation="1.19877"/>
<feColorMatrix type="matrix" values="0 0 0 0 0 0 0 0 0 0 0 0 0 0 0 0 0 0 0.0140573 0"/>
<feBlend mode="normal" in2="BackgroundImageFix" result="effect1_dropShadow_153_2"/>
<feColorMatrix in="SourceAlpha" type="matrix" values="0 0 0 0 0 0 0 0 0 0 0 0 0 0 0 0 0 0 127 0" result="hardAlpha"/>
<feOffset dy="7.20202"/>
<feGaussianBlur stdDeviation="2.88081"/>
<feColorMatrix type="matrix" values="0 0 0 0 0 0 0 0 0 0 0 0 0 0 0 0 0 0 0.0201946 0"/>
<feBlend mode="normal" in2="effect1_dropShadow_153_2" result="effect2_dropShadow_153_2"/>
<feColorMatrix in="SourceAlpha" type="matrix" values="0 0 0 0 0 0 0 0 0 0 0 0 0 0 0 0 0 0 127 0" result="hardAlpha"/>
<feOffset dy="13.5608"/>
<feGaussianBlur stdDeviation="5.42431"/>
<feColorMatrix type="matrix" values="0 0 0 0 0 0 0 0 0 0 0 0 0 0 0 0 0 0 0.025 0"/>
<feBlend mode="normal" in2="effect2_dropShadow_153_2" result="effect3_dropShadow_153_2"/>
<feColorMatrix in="SourceAlpha" type="matrix" values="0 0 0 0 0 0 0 0 0 0 0 0 0 0 0 0 0 0 127 0" result="hardAlpha"/>
<feOffset dy="24.1901"/>
<feGaussianBlur stdDeviation="9.67604"/>
<feColorMatrix type="matrix" values="0 0 0 0 0 0 0 0 0 0 0 0 0 0 0 0 0 0 0.0298054 0"/>
<feBlend mode="normal" in2="effect3_dropShadow_153_2" result="effect4_dropShadow_153_2"/>
<feColorMatrix in="SourceAlpha" type="matrix" values="0 0 0 0 0 0 0 0 0 0 0 0 0 0 0 0 0 0 127 0" result="hardAlpha"/>
<feOffset dy="45.2449"/>
<feGaussianBlur stdDeviation="18.098"/>
<feColorMatrix type="matrix" values="0 0 0 0 0 0 0 0 0 0 0 0 0 0 0 0 0 0 0.0359427 0"/>
<feBlend mode="normal" in2="effect4_dropShadow_153_2" result="effect5_dropShadow_153_2"/>
<feColorMatrix in="SourceAlpha" type="matrix" values="0 0 0 0 0 0 0 0 0 0 0 0 0 0 0 0 0 0 127 0" result="hardAlpha"/>
<feOffset dy="108.299"/>
<feGaussianBlur stdDeviation="43.3198"/>
<feColorMatrix type="matrix" values="0 0 0 0 0 0 0 0 0 0 0 0 0 0 0 0 0 0 0.05 0"/>
<feBlend mode="normal" in2="effect5_dropShadow_153_2" result="effect6_dropShadow_153_2"/>
<feBlend mode="normal" in="SourceGraphic" in2="effect6_dropShadow_153_2" result="shape"/>
</filter>
<filter id="filter1_d_153_2" x="23.9933" y="-49.1796" width="234.741" height="241.381" filterUnits="userSpaceOnUse" color-interpolation-filters="sRGB">
<feFlood flood-opacity="0" result="BackgroundImageFix"/>
<feColorMatrix in="SourceAlpha" type="matrix" values="0 0 0 0 0 0 0 0 0 0 0 0 0 0 0 0 0 0 127 0" result="hardAlpha"/>
<feOffset dy="4.33198"/>
<feGaussianBlur stdDeviation="24.3674"/>
<feComposite in2="hardAlpha" operator="out"/>
<feColorMatrix type="matrix" values="0 0 0 0 0 0 0 0 0 0 0 0 0 0 0 0 0 0 0.05 0"/>
<feBlend mode="normal" in2="BackgroundImageFix" result="effect1_dropShadow_153_2"/>
<feBlend mode="normal" in="SourceGraphic" in2="effect1_dropShadow_153_2" result="shape"/>
</filter>
<linearGradient id="paint0_linear_153_2" x1="209.017" y1="53.5104" x2="73.4763" y2="53.5104" gradientUnits="userSpaceOnUse">
<stop stop-color="#D80023"/>
<stop offset="0.370128" stop-color="#FC2144"/>
<stop offset="0.605261" stop-color="#D80023"/>
<stop offset="1" stop-color="#FF0000"/>
</linearGradient>
<linearGradient id="paint1_linear_153_2" x1="194.099" y1="96.5989" x2="88.4452" y2="96.5989" gradientUnits="userSpaceOnUse">
<stop stop-color="#D80023"/>
<stop offset="0.370128" stop-color="#FC2144"/>
<stop offset="0.605261" stop-color="#D80023"/>
<stop offset="1" stop-color="#FF0000"/>
</linearGradient>
</defs>
</svg>
