<svg width="233" height="117" viewBox="0 0 233 117" fill="none" xmlns="http://www.w3.org/2000/svg">
            <path d="M17.6771 9.00258V23.8286C17.6771 26.5166 16.9911 28.6026 15.6191 30.0866C14.2471 31.5706 12.3571 32.3126 9.94909 32.3126H8.60509C6.08509 32.3126 4.15309 31.5846 2.80909 30.1286C1.46509 28.6446 0.793094 26.5446 0.793094 23.8286V9.00258C0.793094 3.12259 3.38309 0.182586 8.56309 0.182586H9.90709C15.0871 0.182586 17.6771 3.12259 17.6771 9.00258ZM10.4951 24.2906V8.28858C10.4951 7.11258 10.0751 6.52458 9.23509 6.52458C8.39509 6.52458 7.97509 7.11258 7.97509 8.28858V24.2906C7.97509 25.3266 8.40909 25.8446 9.27709 25.8446C10.0891 25.8446 10.4951 25.3266 10.4951 24.2906ZM18.2999 0.602585H32.9999V7.07058H29.0939V31.8506H22.2059V7.07058H18.2999V0.602585ZM33.9767 31.8506V0.602585H44.4767C46.3247 0.602585 47.6967 1.06459 48.5927 1.98858C49.5167 2.91258 49.9787 4.41058 49.9787 6.48258V9.92659C49.9787 11.2426 49.6567 12.3066 49.0127 13.1186C48.3967 13.9306 47.7527 14.4486 47.0807 14.6726C49.4047 15.4006 50.5667 17.1786 50.5667 20.0066V24.6266C50.5667 29.4426 48.6767 31.8506 44.8967 31.8506H33.9767ZM42.0407 18.0746H40.9067V26.3066H42.1667C42.5867 26.3066 42.8807 26.1946 43.0487 25.9706C43.2447 25.7186 43.3427 25.2706 43.3427 24.6266V19.6706C43.3427 19.0826 43.2447 18.6766 43.0487 18.4526C42.8807 18.2006 42.5447 18.0746 42.0407 18.0746ZM41.9147 5.93658H40.9067V12.6566H41.8727C42.7127 12.6566 43.1327 12.1386 43.1327 11.1026V7.40659C43.1327 6.90259 43.0487 6.53858 42.8807 6.31458C42.7127 6.06258 42.3907 5.93658 41.9147 5.93658ZM51.6134 0.602585H64.5914V7.07058H58.4594V12.4046H63.3734V19.0406H58.4594V25.2566H64.8434V31.8506H51.6134V0.602585ZM65.3448 0.602585H80.0448V7.07058H76.1388V31.8506H69.2508V7.07058H65.3448V0.602585ZM87.8256 11.6906H91.1436C92.9356 11.6906 94.3216 12.2506 95.3016 13.3706C96.3096 14.4906 96.8136 16.0866 96.8136 18.1586V25.5506C96.8136 27.6786 96.3376 29.2606 95.3856 30.2966C94.4616 31.3326 92.9776 31.8506 90.9336 31.8506H80.9376V0.602585H87.8256V11.6906ZM87.8256 26.3906H88.6656C89.1416 26.3906 89.4636 26.2646 89.6316 26.0126C89.7996 25.7606 89.8836 25.3686 89.8836 24.8366V18.9566C89.8836 18.4246 89.7996 18.0466 89.6316 17.8226C89.4636 17.5706 89.1416 17.4446 88.6656 17.4446H87.8256V26.3906ZM104.878 0.602585V31.8506H97.9476V0.602585H104.878ZM119.998 31.8506V19.2506H117.604V31.8506H110.674V0.602585H117.604V11.9426H119.998V0.602585H126.928V31.8506H119.998ZM137.719 31.8506L137.215 27.2726H134.023L133.561 31.8506H127.555L131.545 0.602585H140.071L144.439 31.8506H137.719ZM135.619 11.6066L134.653 21.0986H136.585L135.619 11.6066ZM165.437 31.8506H158.507V19.2506C157.751 19.5306 156.771 19.6706 155.567 19.6706H155.399C151.283 19.6706 149.225 17.6266 149.225 13.5386V0.602585H156.113V11.7326C156.113 12.4326 156.211 12.9086 156.407 13.1606C156.603 13.3846 156.953 13.4966 157.457 13.4966H157.541C157.989 13.4966 158.311 13.4406 158.507 13.3286V0.602585H165.437V31.8506ZM176.191 31.8506L175.687 27.2726H172.495L172.033 31.8506H166.027L170.017 0.602585H178.543L182.911 31.8506H176.191ZM174.091 11.6066L173.125 21.0986H175.057L174.091 11.6066ZM192.352 24.4586V18.2006H199.198V24.6686C199.198 26.8526 198.596 28.6866 197.392 30.1706C196.216 31.6266 194.354 32.3546 191.806 32.3546H190.588C185.464 32.3546 182.902 29.5966 182.902 24.0806V8.20458C182.902 5.76858 183.504 3.82258 184.708 2.36659C185.94 0.910585 187.886 0.182586 190.546 0.182586H191.806C196.734 0.182586 199.198 2.61859 199.198 7.49058V12.6146H192.352V7.78459C192.352 6.74859 191.974 6.23059 191.218 6.23059C190.798 6.23059 190.504 6.34258 190.336 6.56658C190.168 6.79058 190.084 7.19658 190.084 7.78459V24.4586C190.084 25.5506 190.476 26.0966 191.26 26.0966C191.988 26.0966 192.352 25.5506 192.352 24.4586ZM199.917 0.602585H214.617V7.07058H210.711V31.8506H203.823V7.07058H199.917V0.602585ZM232.189 9.00258V23.8286C232.189 26.5166 231.503 28.6026 230.131 30.0866C228.759 31.5706 226.869 32.3126 224.461 32.3126H223.117C220.597 32.3126 218.665 31.5846 217.321 30.1286C215.977 28.6446 215.305 26.5446 215.305 23.8286V9.00258C215.305 3.12259 217.895 0.182586 223.075 0.182586H224.419C229.599 0.182586 232.189 3.12259 232.189 9.00258ZM225.007 24.2906V8.28858C225.007 7.11258 224.587 6.52458 223.747 6.52458C222.907 6.52458 222.487 7.11258 222.487 8.28858V24.2906C222.487 25.3266 222.921 25.8446 223.789 25.8446C224.601 25.8446 225.007 25.3266 225.007 24.2906Z" fill="url(#paint0_linear_220_2074)"/>
            <path d="M35.0521 49.2806V52.5146H28.3321V48.4406C28.3321 46.6766 28.9061 45.2066 30.0541 44.0306C31.2301 42.8266 33.0081 42.2246 35.3881 42.2246H36.6061C41.3941 42.2246 43.7881 44.2966 43.7881 48.4406V51.5486C43.7881 53.5366 43.0741 55.0626 41.6461 56.1266C42.4021 56.3786 43.0041 56.8546 43.4521 57.5546C43.9001 58.2546 44.1241 59.1086 44.1241 60.1166V67.2986C44.1241 69.5386 43.4801 71.2746 42.1921 72.5066C40.9041 73.7106 39.0981 74.3126 36.7741 74.3126H35.6401C33.0361 74.3126 31.1461 73.7246 29.9701 72.5486C28.8221 71.3446 28.2481 69.8746 28.2481 68.1386V62.2586H35.0941V66.8786C35.0941 67.6346 35.4161 68.0126 36.0601 68.0126C36.7041 68.0126 37.0261 67.6346 37.0261 66.8786V61.5446C37.0261 61.1246 36.9701 60.8446 36.8581 60.7046C36.7461 60.5646 36.4941 60.4946 36.1021 60.4946H32.7841V54.1526H35.8501C36.5221 54.1526 36.8581 53.7886 36.8581 53.0606V49.2806C36.8581 48.8606 36.7881 48.5666 36.6481 48.3986C36.5081 48.2306 36.2701 48.1466 35.9341 48.1466C35.3461 48.1466 35.0521 48.5246 35.0521 49.2806ZM54.4364 73.8506L53.9324 69.2726H50.7404L50.2784 73.8506H44.2724L48.2624 42.6026H56.7884L61.1564 73.8506H54.4364ZM52.3364 53.6066L51.3704 63.0986H53.3024L52.3364 53.6066ZM73.7387 78.2606V73.8506H66.7667V78.2606H60.8447V67.2566H61.8947C62.1467 66.8086 62.3427 65.4086 62.4827 63.0566C62.5947 60.7046 62.7067 53.8866 62.8187 42.6026H78.0647V67.2566H79.6607V78.2606H73.7387ZM68.6567 62.7206C68.5167 64.7086 68.3067 66.2906 68.0267 67.4666H71.3867V49.0706H68.9507C68.7827 57.6946 68.6847 62.2446 68.6567 62.7206ZM90.079 73.8506L89.575 69.2726H86.383L85.921 73.8506H79.915L83.905 42.6026H92.431L96.799 73.8506H90.079ZM87.979 53.6066L87.013 63.0986H88.945L87.979 53.6066ZM97.2433 73.8506V42.6026H107.743C109.591 42.6026 110.963 43.0646 111.859 43.9886C112.783 44.9126 113.245 46.4106 113.245 48.4826V51.9266C113.245 53.2426 112.923 54.3066 112.279 55.1186C111.663 55.9306 111.019 56.4486 110.347 56.6726C112.671 57.4006 113.833 59.1786 113.833 62.0066V66.6266C113.833 71.4426 111.943 73.8506 108.163 73.8506H97.2433ZM105.307 60.0746H104.173V68.3066H105.433C105.853 68.3066 106.147 68.1946 106.315 67.9706C106.511 67.7186 106.609 67.2706 106.609 66.6266V61.6706C106.609 61.0826 106.511 60.6766 106.315 60.4526C106.147 60.2006 105.811 60.0746 105.307 60.0746ZM105.181 47.9366H104.173V54.6566H105.139C105.979 54.6566 106.399 54.1386 106.399 53.1026V49.4066C106.399 48.9026 106.315 48.5386 106.147 48.3146C105.979 48.0626 105.657 47.9366 105.181 47.9366ZM124.04 73.8506L123.536 69.2726H120.344L119.882 73.8506H113.876L117.866 42.6026H126.392L130.76 73.8506H124.04ZM121.94 53.6066L120.974 63.0986H122.906L121.94 53.6066ZM131.204 42.6026H144.182V49.0706H138.05V54.4046H142.964V61.0406H138.05V67.2566H144.434V73.8506H131.204V42.6026ZM145.396 73.8506V42.6026H153.67L155.392 57.2186L157.198 42.6026H165.01V73.8506H159.046V56.7986L156.4 73.8506H153.922L151.276 56.7986V73.8506H145.396ZM173.2 53.6906H176.518C178.31 53.6906 179.696 54.2506 180.676 55.3706C181.684 56.4906 182.188 58.0866 182.188 60.1586V67.5506C182.188 69.6786 181.712 71.2606 180.76 72.2966C179.836 73.3326 178.352 73.8506 176.308 73.8506H166.312V42.6026H173.2V53.6906ZM173.2 68.3906H174.04C174.516 68.3906 174.838 68.2646 175.006 68.0126C175.174 67.7606 175.258 67.3686 175.258 66.8366V60.9566C175.258 60.4246 175.174 60.0466 175.006 59.8226C174.838 59.5706 174.516 59.4446 174.04 59.4446H173.2V68.3906ZM190.252 42.6026V73.8506H183.322V42.6026H190.252ZM191.538 42.6026H204.516V49.0706H198.384V54.4046H203.298V61.0406H198.384V67.2566H204.768V73.8506H191.538V42.6026ZM48.2296 115.851V84.6026H58.7296C60.5776 84.6026 61.9496 85.0646 62.8456 85.9886C63.7696 86.9126 64.2316 88.4106 64.2316 90.4826V93.9266C64.2316 95.2426 63.9096 96.3066 63.2656 97.1186C62.6496 97.9306 62.0056 98.4486 61.3336 98.6726C63.6576 99.4006 64.8196 101.179 64.8196 104.007V108.627C64.8196 113.443 62.9296 115.851 59.1496 115.851H48.2296ZM56.2936 102.075H55.1596V110.307H56.4196C56.8396 110.307 57.1336 110.195 57.3016 109.971C57.4976 109.719 57.5956 109.271 57.5956 108.627V103.671C57.5956 103.083 57.4976 102.677 57.3016 102.453C57.1336 102.201 56.7976 102.075 56.2936 102.075ZM56.1676 89.9366H55.1596V96.6566H56.1256C56.9656 96.6566 57.3856 96.1386 57.3856 95.1026V91.4066C57.3856 90.9026 57.3016 90.5386 57.1336 90.3146C56.9656 90.0626 56.6436 89.9366 56.1676 89.9366ZM82.6664 93.0026V107.829C82.6664 110.517 81.9804 112.603 80.6084 114.087C79.2364 115.571 77.3464 116.313 74.9384 116.313H73.5944C71.0744 116.313 69.1424 115.585 67.7984 114.129C66.4544 112.645 65.7824 110.545 65.7824 107.829V93.0026C65.7824 87.1226 68.3724 84.1826 73.5524 84.1826H74.8964C80.0764 84.1826 82.6664 87.1226 82.6664 93.0026ZM75.4844 108.291V92.2886C75.4844 91.1126 75.0644 90.5246 74.2244 90.5246C73.3844 90.5246 72.9644 91.1126 72.9644 92.2886V108.291C72.9644 109.327 73.3984 109.845 74.2664 109.845C75.0784 109.845 75.4844 109.327 75.4844 108.291ZM83.7882 115.851V84.6026H99.7902V115.851H92.8602V91.0706H90.7182V115.851H83.7882ZM111.428 103.797H108.11V115.851H101.222V84.6026H111.218C113.262 84.6026 114.746 85.1206 115.67 86.1566C116.622 87.1926 117.098 88.7746 117.098 90.9026V97.3706C117.098 99.4146 116.594 100.997 115.586 102.117C114.606 103.237 113.22 103.797 111.428 103.797ZM108.11 90.0626V98.0426H108.95C109.426 98.0426 109.748 97.9306 109.916 97.7066C110.084 97.4546 110.168 97.0626 110.168 96.5306V91.6166C110.168 91.0846 110.084 90.6926 109.916 90.4406C109.748 90.1886 109.426 90.0626 108.95 90.0626H108.11ZM135.002 93.0026V107.829C135.002 110.517 134.316 112.603 132.944 114.087C131.572 115.571 129.682 116.313 127.274 116.313H125.93C123.41 116.313 121.478 115.585 120.134 114.129C118.79 112.645 118.118 110.545 118.118 107.829V93.0026C118.118 87.1226 120.708 84.1826 125.888 84.1826H127.232C132.412 84.1826 135.002 87.1226 135.002 93.0026ZM127.82 108.291V92.2886C127.82 91.1126 127.4 90.5246 126.56 90.5246C125.72 90.5246 125.3 91.1126 125.3 92.2886V108.291C125.3 109.327 125.734 109.845 126.602 109.845C127.414 109.845 127.82 109.327 127.82 108.291ZM145.574 108.459V102.201H152.42V108.669C152.42 110.853 151.818 112.687 150.614 114.171C149.438 115.627 147.576 116.355 145.028 116.355H143.81C138.686 116.355 136.124 113.597 136.124 108.081V92.2046C136.124 89.7686 136.726 87.8226 137.93 86.3666C139.162 84.9106 141.108 84.1826 143.768 84.1826H145.028C149.956 84.1826 152.42 86.6186 152.42 91.4906V96.6146H145.574V91.7846C145.574 90.7486 145.196 90.2306 144.44 90.2306C144.02 90.2306 143.726 90.3426 143.558 90.5666C143.39 90.7906 143.306 91.1966 143.306 91.7846V108.459C143.306 109.551 143.698 110.097 144.482 110.097C145.21 110.097 145.574 109.551 145.574 108.459ZM160.403 95.6906H163.721C165.513 95.6906 166.899 96.2506 167.879 97.3706C168.887 98.4906 169.391 100.087 169.391 102.159V109.551C169.391 111.679 168.915 113.261 167.963 114.297C167.039 115.333 165.555 115.851 163.511 115.851H153.515V84.6026H160.403V95.6906ZM160.403 110.391H161.243C161.719 110.391 162.041 110.265 162.209 110.013C162.377 109.761 162.461 109.369 162.461 108.837V102.957C162.461 102.425 162.377 102.047 162.209 101.823C162.041 101.571 161.719 101.445 161.243 101.445H160.403V110.391ZM177.455 84.6026V115.851H170.525V84.6026H177.455ZM184.621 109.089V115.851H178.657V109.089H184.621ZM184.621 96.7406V103.461H178.657V96.7406H184.621Z" fill="url(#paint1_linear_220_2074)"/>
            <defs>
                <linearGradient id="paint0_linear_220_2074" x1="295.663" y1="61.1689" x2="-63.5228" y2="61.1689" gradientUnits="userSpaceOnUse">
                    <stop stop-color="white" stop-opacity="0"/>
                    <stop offset="0.370128" stop-color="white"/>
                    <stop offset="0.605261" stop-color="white"/>
                    <stop offset="1" stop-color="white" stop-opacity="0"/>
                </linearGradient>
                <linearGradient id="paint1_linear_220_2074" x1="295.663" y1="61.1689" x2="-63.5228" y2="61.1689" gradientUnits="userSpaceOnUse">
                    <stop stop-color="#F5CC7D"/>
                    <stop offset="0.370128" stop-color="#F5CC7D"/>
                    <stop offset="0.605261" stop-color="#F5CC7D"/>
                    <stop offset="1" stop-color="#FFE38C"/>
                </linearGradient>
            </defs>
        </svg>