<svg width="760" height="187" viewBox="0 0 760 187" fill="none" xmlns="http://www.w3.org/2000/svg">
<path d="M145.308 21.6918V56.9918C145.308 63.3918 143.675 68.3585 140.408 71.8918C137.141 75.4251 132.641 77.1918 126.908 77.1918H123.708C117.708 77.1918 113.108 75.4585 109.908 71.9918C106.708 68.4585 105.108 63.4585 105.108 56.9918V21.6918C105.108 7.6918 111.275 0.691796 123.608 0.691796H126.808C139.141 0.691796 145.308 7.6918 145.308 21.6918ZM128.208 58.0918V19.9918C128.208 17.1918 127.208 15.7918 125.208 15.7918C123.208 15.7918 122.208 17.1918 122.208 19.9918V58.0918C122.208 60.5585 123.241 61.7918 125.308 61.7918C127.241 61.7918 128.208 60.5585 128.208 58.0918ZM146.791 1.6918H181.791V17.0918H172.491V76.0918H156.091V17.0918H146.791V1.6918ZM184.117 76.0918V1.6918H209.117C213.517 1.6918 216.783 2.79179 218.917 4.99179C221.117 7.19179 222.217 10.7585 222.217 15.6918V23.8918C222.217 27.0251 221.45 29.5585 219.917 31.4918C218.45 33.4251 216.917 34.6585 215.317 35.1918C220.85 36.9251 223.617 41.1585 223.617 47.8918V58.8918C223.617 70.3585 219.117 76.0918 210.117 76.0918H184.117ZM203.317 43.2918H200.617V62.8918H203.617C204.617 62.8918 205.317 62.6251 205.717 62.0918C206.183 61.4918 206.417 60.4251 206.417 58.8918V47.0918C206.417 45.6918 206.183 44.7251 205.717 44.1918C205.317 43.5918 204.517 43.2918 203.317 43.2918ZM203.017 14.3918H200.617V30.3918H202.917C204.917 30.3918 205.917 29.1585 205.917 26.6918V17.8918C205.917 16.6918 205.717 15.8251 205.317 15.2918C204.917 14.6918 204.15 14.3918 203.017 14.3918ZM226.109 1.6918H257.009V17.0918H242.409V29.7918H254.109V45.5918H242.409V60.3918H257.609V76.0918H226.109V1.6918ZM258.803 1.6918H293.803V17.0918H284.503V76.0918H268.103V17.0918H258.803V1.6918ZM312.328 28.0918H320.228C324.495 28.0918 327.795 29.4251 330.128 32.0918C332.528 34.7585 333.728 38.5585 333.728 43.4918V61.0918C333.728 66.1585 332.595 69.9251 330.328 72.3918C328.128 74.8585 324.595 76.0918 319.728 76.0918H295.928V1.6918H312.328V28.0918ZM312.328 63.0918H314.328C315.462 63.0918 316.228 62.7918 316.628 62.1918C317.028 61.5918 317.228 60.6585 317.228 59.3918V45.3918C317.228 44.1251 317.028 43.2251 316.628 42.6918C316.228 42.0918 315.462 41.7918 314.328 41.7918H312.328V63.0918ZM352.928 1.6918V76.0918H336.428V1.6918H352.928ZM388.929 76.0918V46.0918H383.229V76.0918H366.729V1.6918H383.229V28.6918H388.929V1.6918H405.429V76.0918H388.929ZM431.121 76.0918L429.921 65.1918H422.321L421.221 76.0918H406.921L416.421 1.6918H436.721L447.121 76.0918H431.121ZM426.121 27.8918L423.821 50.4918H428.421L426.121 27.8918ZM497.117 76.0918H480.617V46.0918C478.817 46.7585 476.483 47.0918 473.617 47.0918H473.217C463.417 47.0918 458.517 42.2251 458.517 32.4918V1.6918H474.917V28.1918C474.917 29.8585 475.15 30.9918 475.617 31.5918C476.083 32.1251 476.917 32.3918 478.117 32.3918H478.317C479.383 32.3918 480.15 32.2585 480.617 31.9918V1.6918H497.117V76.0918ZM522.723 76.0918L521.523 65.1918H513.923L512.823 76.0918H498.523L508.023 1.6918H528.323L538.723 76.0918H522.723ZM517.723 27.8918L515.423 50.4918H520.023L517.723 27.8918ZM561.202 58.4918V43.5918H577.502V58.9918C577.502 64.1918 576.068 68.5585 573.202 72.0918C570.402 75.5585 565.968 77.2918 559.902 77.2918H557.002C544.802 77.2918 538.702 70.7251 538.702 57.5918V19.7918C538.702 13.9918 540.135 9.35846 543.002 5.89179C545.935 2.42513 550.568 0.691796 556.902 0.691796H559.902C571.635 0.691796 577.502 6.49179 577.502 18.0918V30.2918H561.202V18.7918C561.202 16.3251 560.302 15.0918 558.502 15.0918C557.502 15.0918 556.802 15.3585 556.402 15.8918C556.002 16.4251 555.802 17.3918 555.802 18.7918V58.4918C555.802 61.0918 556.735 62.3918 558.602 62.3918C560.335 62.3918 561.202 61.0918 561.202 58.4918ZM579.213 1.6918H614.213V17.0918H604.913V76.0918H588.513V17.0918H579.213V1.6918ZM656.05 21.6918V56.9918C656.05 63.3918 654.417 68.3585 651.15 71.8918C647.884 75.4251 643.384 77.1918 637.65 77.1918H634.45C628.45 77.1918 623.85 75.4585 620.65 71.9918C617.45 68.4585 615.85 63.4585 615.85 56.9918V21.6918C615.85 7.6918 622.017 0.691796 634.35 0.691796H637.55C649.884 0.691796 656.05 7.6918 656.05 21.6918ZM638.95 58.0918V19.9918C638.95 17.1918 637.95 15.7918 635.95 15.7918C633.95 15.7918 632.95 17.1918 632.95 19.9918V58.0918C632.95 60.5585 633.984 61.7918 636.05 61.7918C637.984 61.7918 638.95 60.5585 638.95 58.0918Z" fill="url(#paint0_linear_202_104)"/>
<path d="M17.1459 117.592V125.292H1.14595V115.592C1.14595 111.392 2.51261 107.892 5.24595 105.092C8.04595 102.225 12.2793 100.792 17.9459 100.792H20.8459C32.2459 100.792 37.9459 105.725 37.9459 115.592V122.992C37.9459 127.725 36.2459 131.358 32.8459 133.892C34.6459 134.492 36.0793 135.625 37.1459 137.292C38.2126 138.958 38.746 140.992 38.746 143.392V160.492C38.746 165.825 37.2126 169.958 34.1459 172.892C31.0793 175.758 26.7793 177.192 21.2459 177.192H18.5459C12.3459 177.192 7.84595 175.792 5.04595 172.992C2.31261 170.125 0.945947 166.625 0.945947 162.492V148.492H17.2459V159.492C17.2459 161.292 18.0126 162.192 19.5459 162.192C21.0793 162.192 21.8459 161.292 21.8459 159.492V146.792C21.8459 145.792 21.7126 145.125 21.4459 144.792C21.1793 144.458 20.5793 144.292 19.6459 144.292H11.7459V129.192H19.0459C20.6459 129.192 21.4459 128.325 21.4459 126.592V117.592C21.4459 116.592 21.2793 115.892 20.9459 115.492C20.6126 115.092 20.0459 114.892 19.2459 114.892C17.8459 114.892 17.1459 115.792 17.1459 117.592ZM63.2991 176.092L62.0991 165.192H54.4991L53.3991 176.092H39.0991L48.5991 101.692H68.8991L79.2991 176.092H63.2991ZM58.2991 127.892L55.9991 150.492H60.5991L58.2991 127.892ZM109.257 186.592V176.092H92.6569V186.592H78.5569V160.392H81.0569C81.6569 159.325 82.1236 155.992 82.4569 150.392C82.7236 144.792 82.9902 128.558 83.2569 101.692H119.557V160.392H123.357V186.592H109.257ZM97.1569 149.592C96.8236 154.325 96.3236 158.092 95.6569 160.892H103.657V117.092H97.8569C97.4569 137.625 97.2236 148.458 97.1569 149.592ZM148.162 176.092L146.962 165.192H139.362L138.262 176.092H123.962L133.462 101.692H153.762L164.162 176.092H148.162ZM143.162 127.892L140.862 150.492H145.462L143.162 127.892ZM165.22 176.092V101.692H190.22C194.62 101.692 197.887 102.792 200.02 104.992C202.22 107.192 203.32 110.758 203.32 115.692V123.892C203.32 127.025 202.554 129.558 201.02 131.492C199.554 133.425 198.02 134.658 196.42 135.192C201.954 136.925 204.72 141.158 204.72 147.892V158.892C204.72 170.358 200.22 176.092 191.22 176.092H165.22ZM184.42 143.292H181.72V162.892H184.72C185.72 162.892 186.42 162.625 186.82 162.092C187.287 161.492 187.52 160.425 187.52 158.892V147.092C187.52 145.692 187.287 144.725 186.82 144.192C186.42 143.592 185.62 143.292 184.42 143.292ZM184.12 114.392H181.72V130.392H184.02C186.02 130.392 187.02 129.158 187.02 126.692V117.892C187.02 116.692 186.82 115.825 186.42 115.292C186.02 114.692 185.254 114.392 184.12 114.392ZM229.022 176.092L227.822 165.192H220.222L219.122 176.092H204.822L214.322 101.692H234.622L245.022 176.092H229.022ZM224.022 127.892L221.722 150.492H226.322L224.022 127.892ZM246.08 101.692H276.98V117.092H262.38V129.792H274.08V145.592H262.38V160.392H277.58V176.092H246.08V101.692ZM279.869 176.092V101.692H299.569L303.669 136.492L307.969 101.692H326.569V176.092H312.369V135.492L306.069 176.092H300.169L293.869 135.492V176.092H279.869ZM346.069 128.092H353.969C358.235 128.092 361.535 129.425 363.869 132.092C366.269 134.758 367.469 138.558 367.469 143.492V161.092C367.469 166.158 366.335 169.925 364.069 172.392C361.869 174.858 358.335 176.092 353.469 176.092H329.669V101.692H346.069V128.092ZM346.069 163.092H348.069C349.202 163.092 349.969 162.792 350.369 162.192C350.769 161.592 350.969 160.658 350.969 159.392V145.392C350.969 144.125 350.769 143.225 350.369 142.692C349.969 142.092 349.202 141.792 348.069 141.792H346.069V163.092ZM386.669 101.692V176.092H370.169V101.692H386.669ZM389.732 101.692H420.632V117.092H406.032V129.792H417.732V145.592H406.032V160.392H421.232V176.092H389.732V101.692ZM434.458 176.092V101.692H459.458C463.858 101.692 467.125 102.792 469.258 104.992C471.458 107.192 472.558 110.758 472.558 115.692V123.892C472.558 127.025 471.792 129.558 470.258 131.492C468.792 133.425 467.258 134.658 465.658 135.192C471.192 136.925 473.958 141.158 473.958 147.892V158.892C473.958 170.358 469.458 176.092 460.458 176.092H434.458ZM453.658 143.292H450.958V162.892H453.958C454.958 162.892 455.658 162.625 456.058 162.092C456.525 161.492 456.758 160.425 456.758 158.892V147.092C456.758 145.692 456.525 144.725 456.058 144.192C455.658 143.592 454.858 143.292 453.658 143.292ZM453.358 114.392H450.958V130.392H453.258C455.258 130.392 456.258 129.158 456.258 126.692V117.892C456.258 116.692 456.058 115.825 455.658 115.292C455.258 114.692 454.492 114.392 453.358 114.392ZM516.451 121.692V156.992C516.451 163.392 514.817 168.358 511.551 171.892C508.284 175.425 503.784 177.192 498.051 177.192H494.851C488.851 177.192 484.251 175.458 481.051 171.992C477.851 168.458 476.251 163.458 476.251 156.992V121.692C476.251 107.692 482.417 100.692 494.751 100.692H497.951C510.284 100.692 516.451 107.692 516.451 121.692ZM499.351 158.092V119.992C499.351 117.192 498.351 115.792 496.351 115.792C494.351 115.792 493.351 117.192 493.351 119.992V158.092C493.351 160.558 494.384 161.792 496.451 161.792C498.384 161.792 499.351 160.558 499.351 158.092ZM519.122 176.092V101.692H557.222V176.092H540.722V117.092H535.622V176.092H519.122ZM584.93 147.392H577.03V176.092H560.63V101.692H584.43C589.297 101.692 592.83 102.925 595.03 105.392C597.297 107.858 598.43 111.625 598.43 116.692V132.092C598.43 136.958 597.23 140.725 594.83 143.392C592.497 146.058 589.197 147.392 584.93 147.392ZM577.03 114.692V133.692H579.03C580.164 133.692 580.93 133.425 581.33 132.892C581.73 132.292 581.93 131.358 581.93 130.092V118.392C581.93 117.125 581.73 116.192 581.33 115.592C580.93 114.992 580.164 114.692 579.03 114.692H577.03ZM641.06 121.692V156.992C641.06 163.392 639.427 168.358 636.16 171.892C632.893 175.425 628.393 177.192 622.66 177.192H619.46C613.46 177.192 608.86 175.458 605.66 171.992C602.46 168.458 600.86 163.458 600.86 156.992V121.692C600.86 107.692 607.027 100.692 619.36 100.692H622.56C634.893 100.692 641.06 107.692 641.06 121.692ZM623.96 158.092V119.992C623.96 117.192 622.96 115.792 620.96 115.792C618.96 115.792 617.96 117.192 617.96 119.992V158.092C617.96 160.558 618.993 161.792 621.06 161.792C622.993 161.792 623.96 160.558 623.96 158.092ZM666.231 158.492V143.592H682.531V158.992C682.531 164.192 681.098 168.558 678.231 172.092C675.431 175.558 670.998 177.292 664.931 177.292H662.031C649.831 177.292 643.731 170.725 643.731 157.592V119.792C643.731 113.992 645.164 109.358 648.031 105.892C650.964 102.425 655.598 100.692 661.931 100.692H664.931C676.664 100.692 682.531 106.492 682.531 118.092V130.292H666.231V118.792C666.231 116.325 665.331 115.092 663.531 115.092C662.531 115.092 661.831 115.358 661.431 115.892C661.031 116.425 660.831 117.392 660.831 118.792V158.492C660.831 161.092 661.764 162.392 663.631 162.392C665.364 162.392 666.231 161.092 666.231 158.492ZM701.537 128.092H709.437C713.704 128.092 717.004 129.425 719.337 132.092C721.737 134.758 722.937 138.558 722.937 143.492V161.092C722.937 166.158 721.804 169.925 719.537 172.392C717.337 174.858 713.804 176.092 708.937 176.092H685.137V101.692H701.537V128.092ZM701.537 163.092H703.537C704.671 163.092 705.437 162.792 705.837 162.192C706.237 161.592 706.437 160.658 706.437 159.392V145.392C706.437 144.125 706.237 143.225 705.837 142.692C705.437 142.092 704.671 141.792 703.537 141.792H701.537V163.092ZM742.137 101.692V176.092H725.637V101.692H742.137ZM759.201 159.992V176.092H745.001V159.992H759.201ZM759.201 130.592V146.592H745.001V130.592H759.201Z" fill="url(#paint1_linear_202_104)"/>
<defs>
<linearGradient id="paint0_linear_202_104" x1="1081.41" y1="102.792" x2="-323.205" y2="102.792" gradientUnits="userSpaceOnUse">
<stop stop-color="white" stop-opacity="0"/>
<stop offset="0.370128" stop-color="white"/>
<stop offset="0.605261" stop-color="white"/>
<stop offset="1" stop-color="white" stop-opacity="0"/>
</linearGradient>
<linearGradient id="paint1_linear_202_104" x1="1081.41" y1="102.792" x2="-323.205" y2="102.792" gradientUnits="userSpaceOnUse">
<stop stop-color="#F5CC7D"/>
<stop offset="0.370128" stop-color="#F5CC7D"/>
<stop offset="0.605261" stop-color="#F5CC7D"/>
<stop offset="1" stop-color="#FFE38C"/>
</linearGradient>
</defs>
</svg>
