<svg width="764" height="191" viewBox="0 0 764 191" fill="none" xmlns="http://www.w3.org/2000/svg">
<path d="M24.0852 89L16.6852 59.3V89H0.185156V14.6H16.6852V41L24.3852 14.6H40.7852L30.6852 47.7L41.3852 89H24.0852ZM42.468 14.6H73.368V30H58.768V42.7H70.468V58.5H58.768V73.3H73.968V89H42.468V14.6ZM91.457 14.6V51.8L99.457 14.6H114.857V89H99.457V52L91.457 89H76.057V14.6H91.457ZM95.957 12.6H95.457C91.7237 12.6 88.757 11.5667 86.557 9.5C84.4237 7.43333 83.357 4.7 83.357 1.3V0.499995H93.257V1.09999C93.257 2.89999 94.057 3.79999 95.657 3.79999H95.757C97.357 3.79999 98.157 2.89999 98.157 1.09999V0.499995H107.957V1.3C107.957 4.63333 106.824 7.36666 104.557 9.5C102.357 11.5667 99.4904 12.6 95.957 12.6ZM140.549 71.4V56.5H156.849V71.9C156.849 77.1 155.416 81.4667 152.549 85C149.749 88.4667 145.316 90.2 139.249 90.2H136.349C124.149 90.2 118.049 83.6333 118.049 70.5V32.7C118.049 26.9 119.483 22.2667 122.349 18.8C125.283 15.3333 129.916 13.6 136.249 13.6H139.249C150.983 13.6 156.849 19.4 156.849 31V43.2H140.549V31.7C140.549 29.2333 139.649 28 137.849 28C136.849 28 136.149 28.2667 135.749 28.8C135.349 29.3333 135.149 30.3 135.149 31.7V71.4C135.149 74 136.083 75.3 137.949 75.3C139.683 75.3 140.549 74 140.549 71.4ZM175.855 41H183.755C188.022 41 191.322 42.3333 193.655 45C196.055 47.6667 197.255 51.4667 197.255 56.4V74C197.255 79.0667 196.122 82.8333 193.855 85.3C191.655 87.7667 188.122 89 183.255 89H159.455V14.6H175.855V41ZM175.855 76H177.855C178.989 76 179.755 75.7 180.155 75.1C180.555 74.5 180.755 73.5667 180.755 72.3V58.3C180.755 57.0333 180.555 56.1333 180.155 55.6C179.755 55 178.989 54.7 177.855 54.7H175.855V76ZM216.455 14.6V89H199.955V14.6H216.455ZM266.756 14.6L253.956 80.8C252.89 86.2667 250.156 89 245.756 89H232.456V75.4H237.156C237.89 75.4 238.356 75.2667 238.556 75C238.823 74.6667 239.023 74.0667 239.156 73.2L239.256 71.9C239.256 70.6333 239.09 69.3333 238.756 68L227.956 14.6H244.256L247.856 44.3L251.056 14.6H266.756ZM305.859 89H289.359V59C287.559 59.6667 285.225 60 282.359 60H281.959C272.159 60 267.259 55.1333 267.259 45.4V14.6H283.659V41.1C283.659 42.7667 283.892 43.9 284.359 44.5C284.825 45.0333 285.659 45.3 286.859 45.3H287.059C288.125 45.3 288.892 45.1667 289.359 44.9V14.6H305.859V89ZM309.265 14.6H340.165V30H325.565V42.7H337.265V58.5H325.565V73.3H340.765V89H309.265V14.6ZM365.054 89V59H359.354V89H342.854V14.6H359.354V41.6H365.054V14.6H381.554V89H365.054ZM400.246 14.6V51.8L408.246 14.6H423.646V89H408.246V52L400.246 89H384.846V14.6H400.246ZM451.038 89L443.638 59.3V89H427.138V14.6H443.638V41L451.338 14.6H467.738L457.638 47.7L468.338 89H451.038ZM507.175 34.6V69.9C507.175 76.3 505.542 81.2667 502.275 84.8C499.008 88.3333 494.508 90.1 488.775 90.1H485.575C479.575 90.1 474.975 88.3667 471.775 84.9C468.575 81.3667 466.975 76.3667 466.975 69.9V34.6C466.975 20.6 473.142 13.6 485.475 13.6H488.675C501.008 13.6 507.175 20.6 507.175 34.6ZM490.075 71V32.9C490.075 30.1 489.075 28.7 487.075 28.7C485.075 28.7 484.075 30.1 484.075 32.9V71C484.075 73.4667 485.108 74.7 487.175 74.7C489.108 74.7 490.075 73.4667 490.075 71ZM510.046 89V14.6H535.046C539.446 14.6 542.713 15.7 544.846 17.9C547.046 20.1 548.146 23.6667 548.146 28.6V36.8C548.146 39.9333 547.379 42.4667 545.846 44.4C544.379 46.3333 542.846 47.5667 541.246 48.1C546.779 49.8333 549.546 54.0667 549.546 60.8V71.8C549.546 83.2667 545.046 89 536.046 89H510.046ZM529.246 56.2H526.546V75.8H529.546C530.546 75.8 531.246 75.5333 531.646 75C532.113 74.4 532.346 73.3333 532.346 71.8V60C532.346 58.6 532.113 57.6333 531.646 57.1C531.246 56.5 530.446 56.2 529.246 56.2ZM528.946 27.3H526.546V43.3H528.846C530.846 43.3 531.846 42.0667 531.846 39.6V30.8C531.846 29.6 531.646 28.7333 531.246 28.2C530.846 27.6 530.079 27.3 528.946 27.3Z" fill="url(#paint0_linear_202_319)"/>
<path d="M562.776 89V14.6H600.876V89H584.376V30H579.276V89H562.776ZM644.284 34.6V69.9C644.284 76.3 642.651 81.2667 639.384 84.8C636.118 88.3333 631.618 90.1 625.884 90.1H622.684C616.684 90.1 612.084 88.3667 608.884 84.9C605.684 81.3667 604.084 76.3667 604.084 69.9V34.6C604.084 20.6 610.251 13.6 622.584 13.6H625.784C638.118 13.6 644.284 20.6 644.284 34.6ZM627.184 71V32.9C627.184 30.1 626.184 28.7 624.184 28.7C622.184 28.7 621.184 30.1 621.184 32.9V71C621.184 73.4667 622.218 74.7 624.284 74.7C626.218 74.7 627.184 73.4667 627.184 71ZM669.455 71.4V56.5H685.755V71.9C685.755 77.1 684.322 81.4667 681.455 85C678.655 88.4667 674.222 90.2 668.155 90.2H665.255C653.055 90.2 646.955 83.6333 646.955 70.5V32.7C646.955 26.9 648.389 22.2667 651.255 18.8C654.189 15.3333 658.822 13.6 665.155 13.6H668.155C679.889 13.6 685.755 19.4 685.755 31V43.2H669.455V31.7C669.455 29.2333 668.555 28 666.755 28C665.755 28 665.055 28.2667 664.655 28.8C664.255 29.3333 664.055 30.3 664.055 31.7V71.4C664.055 74 664.989 75.3 666.855 75.3C668.589 75.3 669.455 74 669.455 71.4ZM691.562 68.1C692.028 58.1667 692.262 40.3333 692.262 14.6H728.262V89H711.762V30H707.262C707.262 50 706.995 64.3667 706.462 73.1C706.062 79.0333 704.695 83.1667 702.362 85.5C700.095 87.8333 696.095 89 690.362 89H687.262V73.1H688.062C689.395 73.1 690.295 72.7333 690.762 72C691.228 71.2 691.495 69.9 691.562 68.1ZM731.726 14.6H762.626V30H748.026V42.7H759.726V58.5H748.026V73.3H763.226V89H731.726V14.6ZM84.5043 189V114.6H122.604V189H106.104V130H101.004V189H84.5043ZM150.313 160.3H142.413V189H126.013V114.6H149.813C154.68 114.6 158.213 115.833 160.413 118.3C162.68 120.767 163.813 124.533 163.813 129.6V145C163.813 149.867 162.613 153.633 160.213 156.3C157.88 158.967 154.58 160.3 150.313 160.3ZM142.413 127.6V146.6H144.413C145.546 146.6 146.313 146.333 146.713 145.8C147.113 145.2 147.313 144.267 147.313 143V131.3C147.313 130.033 147.113 129.1 146.713 128.5C146.313 127.9 145.546 127.6 144.413 127.6H142.413ZM206.443 134.6V169.9C206.443 176.3 204.809 181.267 201.543 184.8C198.276 188.333 193.776 190.1 188.043 190.1H184.843C178.843 190.1 174.243 188.367 171.043 184.9C167.843 181.367 166.243 176.367 166.243 169.9V134.6C166.243 120.6 172.409 113.6 184.743 113.6H187.943C200.276 113.6 206.443 120.6 206.443 134.6ZM189.343 171V132.9C189.343 130.1 188.343 128.7 186.343 128.7C184.343 128.7 183.343 130.1 183.343 132.9V171C183.343 173.467 184.376 174.7 186.443 174.7C188.376 174.7 189.343 173.467 189.343 171ZM231.614 171.4V156.5H247.914V171.9C247.914 177.1 246.48 181.467 243.614 185C240.814 188.467 236.38 190.2 230.314 190.2H227.414C215.214 190.2 209.114 183.633 209.114 170.5V132.7C209.114 126.9 210.547 122.267 213.414 118.8C216.347 115.333 220.98 113.6 227.314 113.6H230.314C242.047 113.6 247.914 119.4 247.914 131V143.2H231.614V131.7C231.614 129.233 230.714 128 228.914 128C227.914 128 227.214 128.267 226.814 128.8C226.414 129.333 226.214 130.3 226.214 131.7V171.4C226.214 174 227.147 175.3 229.014 175.3C230.747 175.3 231.614 174 231.614 171.4ZM250.72 189V114.6H270.42L274.52 149.4L278.82 114.6H297.42V189H283.22V148.4L276.92 189H271.02L264.72 148.4V189H250.72ZM340.72 134.6V169.9C340.72 176.3 339.087 181.267 335.82 184.8C332.553 188.333 328.053 190.1 322.32 190.1H319.12C313.12 190.1 308.52 188.367 305.32 184.9C302.12 181.367 300.52 176.367 300.52 169.9V134.6C300.52 120.6 306.687 113.6 319.02 113.6H322.22C334.553 113.6 340.72 120.6 340.72 134.6ZM323.62 171V132.9C323.62 130.1 322.62 128.7 320.62 128.7C318.62 128.7 317.62 130.1 317.62 132.9V171C317.62 173.467 318.653 174.7 320.72 174.7C322.653 174.7 323.62 173.467 323.62 171ZM342.203 114.6H377.203V130H367.903V189H351.503V130H342.203V114.6ZM403.829 160.3H395.929V189H379.529V114.6H403.329C408.195 114.6 411.729 115.833 413.929 118.3C416.195 120.767 417.329 124.533 417.329 129.6V145C417.329 149.867 416.129 153.633 413.729 156.3C411.395 158.967 408.095 160.3 403.829 160.3ZM395.929 127.6V146.6H397.929C399.062 146.6 399.829 146.333 400.229 145.8C400.629 145.2 400.829 144.267 400.829 143V131.3C400.829 130.033 400.629 129.1 400.229 128.5C399.829 127.9 399.062 127.6 397.929 127.6H395.929ZM438.643 189L437.443 178.1H429.843L428.743 189H414.443L423.943 114.6H444.243L454.643 189H438.643ZM433.643 140.8L431.343 163.4H435.943L433.643 140.8ZM502.938 114.6L490.138 180.8C489.071 186.267 486.338 189 481.938 189H468.638V175.4H473.338C474.071 175.4 474.538 175.267 474.738 175C475.005 174.667 475.205 174.067 475.338 173.2L475.438 171.9C475.438 170.633 475.271 169.333 474.938 168L464.138 114.6H480.438L484.038 144.3L487.238 114.6H502.938ZM528.34 160.3H520.44V189H504.04V114.6H527.84C532.707 114.6 536.24 115.833 538.44 118.3C540.707 120.767 541.84 124.533 541.84 129.6V145C541.84 149.867 540.64 153.633 538.24 156.3C535.907 158.967 532.607 160.3 528.34 160.3ZM520.44 127.6V146.6H522.44C523.574 146.6 524.34 146.333 524.74 145.8C525.14 145.2 525.34 144.267 525.34 143V131.3C525.34 130.033 525.14 129.1 524.74 128.5C524.34 127.9 523.574 127.6 522.44 127.6H520.44ZM584.47 134.6V169.9C584.47 176.3 582.837 181.267 579.57 184.8C576.303 188.333 571.803 190.1 566.07 190.1H562.87C556.87 190.1 552.27 188.367 549.07 184.9C545.87 181.367 544.27 176.367 544.27 169.9V134.6C544.27 120.6 550.437 113.6 562.77 113.6H565.97C578.303 113.6 584.47 120.6 584.47 134.6ZM567.37 171V132.9C567.37 130.1 566.37 128.7 564.37 128.7C562.37 128.7 561.37 130.1 561.37 132.9V171C561.37 173.467 562.403 174.7 564.47 174.7C566.403 174.7 567.37 173.467 567.37 171ZM611.341 189L603.941 159.3V189H587.441V114.6H603.941V141L611.641 114.6H628.041L617.941 147.7L628.641 189H611.341ZM652.9 189L651.7 178.1H644.1L643 189H628.7L638.2 114.6H658.5L668.9 189H652.9ZM647.9 140.8L645.6 163.4H650.2L647.9 140.8Z" fill="url(#paint1_linear_202_319)"/>
<defs>
<linearGradient id="paint0_linear_202_319" x1="1165.1" y1="94.3176" x2="-405.808" y2="94.3174" gradientUnits="userSpaceOnUse">
<stop stop-color="#F5CC7D"/>
<stop offset="0.370128" stop-color="#F5CC7D"/>
<stop offset="0.605261" stop-color="#F5CC7D"/>
<stop offset="1" stop-color="#FFE38C"/>
</linearGradient>
<linearGradient id="paint1_linear_202_319" x1="1165.1" y1="94.3176" x2="-405.808" y2="94.3174" gradientUnits="userSpaceOnUse">
<stop stop-color="white" stop-opacity="0"/>
<stop offset="0.370128" stop-color="white"/>
<stop offset="0.605261" stop-color="white"/>
<stop offset="1" stop-color="white" stop-opacity="0"/>
</linearGradient>
</defs>
</svg>
